G04 PROTEUS RS274X GERBER FILE*
%FSLAX45Y45*%
%MOMM*%
G01*
%AMPPAD012*
4,1,36,
0.635000,-0.762000,
-0.635000,-0.762000,
-0.660970,-0.759470,
-0.684980,-0.752200,
-0.706580,-0.740650,
-0.725290,-0.725290,
-0.740650,-0.706570,
-0.752200,-0.684980,
-0.759470,-0.660970,
-0.762000,-0.635000,
-0.762000,0.635000,
-0.759470,0.660970,
-0.752200,0.684980,
-0.740650,0.706570,
-0.725290,0.725290,
-0.706580,0.740650,
-0.684980,0.752200,
-0.660970,0.759470,
-0.635000,0.762000,
0.635000,0.762000,
0.660970,0.759470,
0.684980,0.752200,
0.706580,0.740650,
0.725290,0.725290,
0.740650,0.706570,
0.752200,0.684980,
0.759470,0.660970,
0.762000,0.635000,
0.762000,-0.635000,
0.759470,-0.660970,
0.752200,-0.684980,
0.740650,-0.706570,
0.725290,-0.725290,
0.706580,-0.740650,
0.684980,-0.752200,
0.660970,-0.759470,
0.635000,-0.762000,
0*%
%ADD20PPAD012*%
%ADD21C,1.524000*%
%ADD14C,2.032000*%
%ADD22C,2.286000*%
%AMPPAD015*
4,1,8,
-0.509800,1.397000,
0.509800,1.397000,
0.889000,1.017800,
0.889000,-1.017800,
0.509800,-1.397000,
-0.509800,-1.397000,
-0.889000,-1.017800,
-0.889000,1.017800,
-0.509800,1.397000,
0*%
%ADD23PPAD015*%
%AMPPAD016*
4,1,36,
-1.016000,1.143000,
1.016000,1.143000,
1.041970,1.140470,
1.065980,1.133200,
1.087580,1.121650,
1.106290,1.106290,
1.121650,1.087570,
1.133200,1.065980,
1.140470,1.041970,
1.143000,1.016000,
1.143000,-1.016000,
1.140470,-1.041970,
1.133200,-1.065980,
1.121650,-1.087570,
1.106290,-1.106290,
1.087580,-1.121650,
1.065980,-1.133200,
1.041970,-1.140470,
1.016000,-1.143000,
-1.016000,-1.143000,
-1.041970,-1.140470,
-1.065980,-1.133200,
-1.087580,-1.121650,
-1.106290,-1.106290,
-1.121650,-1.087570,
-1.133200,-1.065980,
-1.140470,-1.041970,
-1.143000,-1.016000,
-1.143000,1.016000,
-1.140470,1.041970,
-1.133200,1.065980,
-1.121650,1.087570,
-1.106290,1.106290,
-1.087580,1.121650,
-1.065980,1.133200,
-1.041970,1.140470,
-1.016000,1.143000,
0*%
%ADD24PPAD016*%
%AMPPAD017*
4,1,36,
1.143000,1.016000,
1.143000,-1.016000,
1.140470,-1.041970,
1.133200,-1.065980,
1.121650,-1.087580,
1.106290,-1.106290,
1.087570,-1.121650,
1.065980,-1.133200,
1.041970,-1.140470,
1.016000,-1.143000,
-1.016000,-1.143000,
-1.041970,-1.140470,
-1.065980,-1.133200,
-1.087570,-1.121650,
-1.106290,-1.106290,
-1.121650,-1.087580,
-1.133200,-1.065980,
-1.140470,-1.041970,
-1.143000,-1.016000,
-1.143000,1.016000,
-1.140470,1.041970,
-1.133200,1.065980,
-1.121650,1.087580,
-1.106290,1.106290,
-1.087570,1.121650,
-1.065980,1.133200,
-1.041970,1.140470,
-1.016000,1.143000,
1.016000,1.143000,
1.041970,1.140470,
1.065980,1.133200,
1.087570,1.121650,
1.106290,1.106290,
1.121650,1.087580,
1.133200,1.065980,
1.140470,1.041970,
1.143000,1.016000,
0*%
%ADD25PPAD017*%
%ADD26C,5.334000*%
%ADD27C,0.750000*%
%ADD19C,0.203200*%
D20*
X-2390000Y+760000D03*
D21*
X-2644000Y+760000D03*
X-2898000Y+760000D03*
X-3152000Y+760000D03*
X-3406000Y+760000D03*
X-3660000Y+760000D03*
X-3914000Y+760000D03*
X-4168000Y+760000D03*
X-4422000Y+760000D03*
X-4422000Y-2000D03*
X-4168000Y-2000D03*
X-3914000Y-2000D03*
X-3660000Y-2000D03*
X-3406000Y-2000D03*
X-3152000Y-2000D03*
X-2898000Y-2000D03*
X-2644000Y-2000D03*
X-2390000Y-2000D03*
D14*
X-1990000Y-130000D03*
X-1990000Y+886000D03*
X-1740000Y-130000D03*
X-1740000Y+886000D03*
X-1500000Y-130000D03*
X-1500000Y+886000D03*
X-1320000Y-1540000D03*
X-2336000Y-1540000D03*
X-1320000Y-1240000D03*
X-2336000Y-1240000D03*
X-1330000Y-930000D03*
X-2346000Y-930000D03*
X-1330000Y-630000D03*
X-2346000Y-630000D03*
D22*
X-2890000Y-720000D03*
X-3398000Y-720000D03*
D14*
X-2880000Y-1840000D03*
X-2880000Y-1332000D03*
X-3400000Y-1850000D03*
X-3400000Y-1342000D03*
X-2300000Y+3089040D03*
X-2808000Y+3089040D03*
D23*
X-690000Y-1620000D03*
X-436000Y-1620000D03*
X-182000Y-1620000D03*
X+72000Y-1620000D03*
X+72000Y-858000D03*
X-182000Y-858000D03*
X-436000Y-858000D03*
X-690000Y-858000D03*
D24*
X-1040000Y+1520000D03*
X-786000Y+1520000D03*
X-230000Y+1520000D03*
X+24000Y+1520000D03*
X-1020000Y+720000D03*
X-766000Y+720000D03*
X-230000Y+720000D03*
X+24000Y+720000D03*
X-1008500Y+48500D03*
X-754500Y+48500D03*
X-230000Y+30000D03*
X+24000Y+30000D03*
D14*
X-1170000Y-470000D03*
X-154000Y-470000D03*
X-2420000Y+1710000D03*
X-1404000Y+1710000D03*
X-2420000Y+1400000D03*
X-1404000Y+1400000D03*
X-5310000Y-650000D03*
X-4294000Y-650000D03*
D25*
X-5300000Y+840000D03*
X-5300000Y+586000D03*
X-5300000Y+332000D03*
X-5300000Y+78000D03*
X-5300000Y-176000D03*
D26*
X-4990000Y+1750000D03*
X-4675040Y+1277560D03*
X-4372780Y+1750000D03*
D14*
X-4566000Y+2390000D03*
X-3550000Y+2390000D03*
D25*
X-4680000Y+2720000D03*
X-4680000Y+2974000D03*
D14*
X-4230000Y+2870000D03*
X-3214000Y+2870000D03*
D24*
X-2804000Y+2520000D03*
X-2550000Y+2520000D03*
X-2296000Y+2520000D03*
D14*
X-3810000Y+1810000D03*
X-3810000Y+1302000D03*
D22*
X-3230000Y+1810000D03*
X-3230000Y+1556000D03*
D14*
X-1800000Y+2000000D03*
X-1800000Y+2508000D03*
D27*
X-4770000Y-1280000D03*
X-4270000Y-1280000D03*
D19*
X-5800000Y-2160000D02*
X+390000Y-2160000D01*
X+390000Y+3300000D01*
X-5800000Y+3300000D01*
X-5800000Y-2160000D01*
M02*
