M48
METRIC,TZ
T01C0.7620
T02C1.0160
T03C3.0480
T04C0.9910
%
T01
X-23900Y+7600
X-26440Y+7600
X-28980Y+7600
X-31520Y+7600
X-34060Y+7600
X-36600Y+7600
X-39140Y+7600
X-41680Y+7600
X-44220Y+7600
X-44220Y-20
X-41680Y-20
X-39140Y-20
X-36600Y-20
X-34060Y-20
X-31520Y-20
X-28980Y-20
X-26440Y-20
X-23900Y-20
X-19900Y-1300
X-19900Y+8860
X-17400Y-1300
X-17400Y+8860
X-15000Y-1300
X-15000Y+8860
X-13200Y-15400
X-23360Y-15400
X-13200Y-12400
X-23360Y-12400
X-13300Y-9300
X-23460Y-9300
X-13300Y-6300
X-23460Y-6300
X-28900Y-7200
X-33980Y-7200
X-28800Y-18400
X-28800Y-13320
X-34000Y-18500
X-34000Y-13420
X-23000Y+30890
X-28080Y+30890
X-6900Y-16200
X-4360Y-16200
X-1820Y-16200
X+720Y-16200
X+720Y-8580
X-1820Y-8580
X-4360Y-8580
X-6900Y-8580
X-11700Y-4700
X-1540Y-4700
X-24200Y+17100
X-14040Y+17100
X-24200Y+14000
X-14040Y+14000
X-53100Y-6500
X-42940Y-6500
X-45660Y+23900
X-35500Y+23900
X-42300Y+28700
X-32140Y+28700
X-38100Y+18100
X-38100Y+13020
X-32300Y+18100
X-32300Y+15560
X-18000Y+20000
X-18000Y+25080
T02
X-10400Y+15200
X-7860Y+15200
X-2300Y+15200
X+240Y+15200
X-10200Y+7200
X-7660Y+7200
X-2300Y+7200
X+240Y+7200
X-10085Y+485
X-7545Y+485
X-2300Y+300
X+240Y+300
X-53000Y+8400
X-53000Y+5860
X-53000Y+3320
X-53000Y+780
X-53000Y-1760
X-46800Y+27200
X-46800Y+29740
X-28040Y+25200
X-25500Y+25200
X-22960Y+25200
T03
X-49900Y+17500
X-46750Y+12776
X-43728Y+17500
T04
X-47700Y-12800
X-42700Y-12800
M30
