G04 PROTEUS RS274X GERBER FILE*
%FSLAX45Y45*%
%MOMM*%
G01*
%ADD10C,0.254000*%
%ADD11R,1.270000X1.270000*%
%ADD12C,1.270000*%
%ADD13C,1.778000*%
%ADD14C,2.032000*%
%AMDIL005*
4,1,8,
-0.762000,0.965200,-0.457200,1.270000,0.457200,1.270000,0.762000,0.965200,0.762000,-0.965200,
0.457200,-1.270000,-0.457200,-1.270000,-0.762000,-0.965200,-0.762000,0.965200,
0*%
%ADD15DIL005*%
%ADD16R,2.032000X2.032000*%
%ADD17C,4.826000*%
%ADD18C,1.510000*%
%ADD19C,0.203200*%
G36*
X+329040Y-2099040D02*
X-5739040Y-2099040D01*
X-5739040Y+3239040D01*
X-3373300Y+3239040D01*
X-3416299Y+3196041D01*
X-3416299Y+2654299D01*
X-3571041Y+2654299D01*
X-3600799Y+2624541D01*
X-3600799Y+2516999D01*
X-3602605Y+2516999D01*
X-3676999Y+2442605D01*
X-3676999Y+2337395D01*
X-3602605Y+2263001D01*
X-3497395Y+2263001D01*
X-3423001Y+2337395D01*
X-3423001Y+2442605D01*
X-3497395Y+2516999D01*
X-3499201Y+2516999D01*
X-3499201Y+2552701D01*
X-3386541Y+2552701D01*
X-3303041Y+2469201D01*
X-2943699Y+2469201D01*
X-2943699Y+2380301D01*
X-2346799Y+2380301D01*
X-2346799Y+2307041D01*
X-2380541Y+2273299D01*
X-2838541Y+2273299D01*
X-3167138Y+1944702D01*
X-3172135Y+1949699D01*
X-3287865Y+1949699D01*
X-3369699Y+1867865D01*
X-3369699Y+1860799D01*
X-3683001Y+1860799D01*
X-3683001Y+1862605D01*
X-3757395Y+1936999D01*
X-3759201Y+1936999D01*
X-3759201Y+2677541D01*
X-3852459Y+2770799D01*
X-4149597Y+2770799D01*
X-4103001Y+2817395D01*
X-4103001Y+2922605D01*
X-4177395Y+2996999D01*
X-4282605Y+2996999D01*
X-4356999Y+2922605D01*
X-4356999Y+2920799D01*
X-4383459Y+2920799D01*
X-4487459Y+3024799D01*
X-4540301Y+3024799D01*
X-4540301Y+3113699D01*
X-4819699Y+3113699D01*
X-4819699Y+2770799D01*
X-5545542Y+2770798D01*
X-5638799Y+2677541D01*
X-5638799Y-1418041D01*
X-5545541Y-1511299D01*
X-4550959Y-1511299D01*
X-4457701Y-1418041D01*
X-4457701Y-1100541D01*
X-4076701Y-719541D01*
X-4076701Y-529041D01*
X-4042959Y-495299D01*
X-3670299Y-495299D01*
X-3670299Y-1497541D01*
X-3577041Y-1590799D01*
X-2462999Y-1590799D01*
X-2462999Y-1592605D01*
X-2388605Y-1666999D01*
X-2283395Y-1666999D01*
X-2209001Y-1592605D01*
X-2209001Y-1487395D01*
X-2283395Y-1413001D01*
X-2285201Y-1413001D01*
X-2285201Y-1366999D01*
X-2283395Y-1366999D01*
X-2209001Y-1292605D01*
X-2209001Y-1187395D01*
X-2283395Y-1113001D01*
X-2295201Y-1113001D01*
X-2295201Y-1056999D01*
X-2293395Y-1056999D01*
X-2219001Y-982605D01*
X-2219001Y-877395D01*
X-2293395Y-803001D01*
X-2295201Y-803001D01*
X-2295201Y-756999D01*
X-2293395Y-756999D01*
X-2219001Y-682605D01*
X-2219001Y-577395D01*
X-2246447Y-549949D01*
X-2030039Y-549949D01*
X-1987447Y-592541D01*
X-1987447Y-1894393D01*
X-1801041Y-2080799D01*
X+86541Y-2080799D01*
X+290798Y-1876542D01*
X+290798Y-1425458D01*
X+224541Y-1359201D01*
X-147959Y-1359201D01*
X-170081Y-1337079D01*
X-232799Y-1363059D01*
X-232799Y-1454901D01*
X-296299Y-1454901D01*
X-296299Y-1785099D01*
X-232799Y-1785099D01*
X-232799Y-1790701D01*
X-1439459Y-1790701D01*
X-1569201Y-1660959D01*
X-1569201Y-980799D01*
X-1456999Y-980799D01*
X-1456999Y-982605D01*
X-1382605Y-1056999D01*
X-1277395Y-1056999D01*
X-1203001Y-982605D01*
X-1203001Y-877395D01*
X-1277395Y-803001D01*
X-1382605Y-803001D01*
X-1456999Y-877395D01*
X-1456999Y-879201D01*
X-1641041Y-879201D01*
X-1670799Y-908959D01*
X-1670799Y-1703041D01*
X-1519639Y-1854201D01*
X-1723959Y-1854201D01*
X-1799201Y-1778959D01*
X-1799201Y-812799D01*
X-1440959Y-812799D01*
X-1383882Y-755722D01*
X-1382605Y-756999D01*
X-1277395Y-756999D01*
X-1203001Y-682605D01*
X-1203001Y-596999D01*
X-1117395Y-596999D01*
X-1043001Y-522605D01*
X-1043001Y-417395D01*
X-1117395Y-343001D01*
X-1222605Y-343001D01*
X-1242132Y-362528D01*
X-1274459Y-330201D01*
X-2201459Y-330201D01*
X-2235201Y-296459D01*
X-2235201Y+148041D01*
X-2290361Y+203201D01*
X-2116541Y+203201D01*
X-2040798Y+127458D01*
X-2040799Y-3001D01*
X-2042605Y-3001D01*
X-2116999Y-77395D01*
X-2116999Y-182605D01*
X-2042605Y-256999D01*
X-1937395Y-256999D01*
X-1865000Y-184604D01*
X-1792605Y-256999D01*
X-1687395Y-256999D01*
X-1620000Y-189604D01*
X-1552605Y-256999D01*
X-1447395Y-256999D01*
X-1373001Y-182605D01*
X-1373001Y-77395D01*
X-1447395Y-3001D01*
X-1449201Y-3001D01*
X-1449201Y+338541D01*
X-1542458Y+431798D01*
X-3788958Y+431798D01*
X-3863201Y+506041D01*
X-3863201Y+667116D01*
X-3812401Y+717916D01*
X-3812401Y+802084D01*
X-3871916Y+861599D01*
X-3956084Y+861599D01*
X-4015599Y+802084D01*
X-4015599Y+717916D01*
X-3964799Y+667116D01*
X-3964799Y+463959D01*
X-3869139Y+368299D01*
X-3958459Y+368299D01*
X-4320401Y+730241D01*
X-4320401Y+802084D01*
X-4379916Y+861599D01*
X-4464084Y+861599D01*
X-4523599Y+802084D01*
X-4523599Y+717916D01*
X-4464084Y+658401D01*
X-4392241Y+658401D01*
X-4038639Y+304799D01*
X-4529541Y+304799D01*
X-4622799Y+211541D01*
X-4622799Y-23041D01*
X-4593041Y-52799D01*
X-4514884Y-52799D01*
X-4491482Y-76201D01*
X-4614459Y-76201D01*
X-4819459Y+128799D01*
X-5160301Y+128799D01*
X-5160301Y+979699D01*
X-5249201Y+979699D01*
X-5249201Y+1610479D01*
X-5106783Y+1468061D01*
X-4883261Y+1468061D01*
X-4956979Y+1394343D01*
X-4956979Y+1160777D01*
X-4791823Y+995621D01*
X-4558257Y+995621D01*
X-4393101Y+1160777D01*
X-4393101Y+1394343D01*
X-4466819Y+1468061D01*
X-4255997Y+1468061D01*
X-4090841Y+1633217D01*
X-4090841Y+1866783D01*
X-4255997Y+2031939D01*
X-4321981Y+2031939D01*
X-4321981Y+2217821D01*
X-4440278Y+2336118D01*
X-4439001Y+2337395D01*
X-4439001Y+2442605D01*
X-4485597Y+2489201D01*
X-4021541Y+2489201D01*
X-3987798Y+2455458D01*
X-3987798Y+1629958D01*
X-3864168Y+1506328D01*
X-3577041Y+1506328D01*
X-3202799Y+1132086D01*
X-3202799Y+852884D01*
X-3253599Y+802084D01*
X-3253599Y+717916D01*
X-3221482Y+685799D01*
X-3336518Y+685799D01*
X-3304401Y+717916D01*
X-3304401Y+802084D01*
X-3363916Y+861599D01*
X-3448084Y+861599D01*
X-3505201Y+804482D01*
X-3505201Y+910041D01*
X-3598459Y+1003299D01*
X-3996541Y+1003299D01*
X-4138241Y+861599D01*
X-4210084Y+861599D01*
X-4269599Y+802084D01*
X-4269599Y+717916D01*
X-4210084Y+658401D01*
X-4125916Y+658401D01*
X-4066401Y+717916D01*
X-4066401Y+789759D01*
X-3954459Y+901701D01*
X-3640541Y+901701D01*
X-3606799Y+867959D01*
X-3606799Y+850482D01*
X-3617916Y+861599D01*
X-3702084Y+861599D01*
X-3761599Y+802084D01*
X-3761599Y+717916D01*
X-3710799Y+667116D01*
X-3710799Y+550459D01*
X-3681041Y+520701D01*
X-2836459Y+520701D01*
X-2743201Y+613959D01*
X-2743201Y+715518D01*
X-2686084Y+658401D01*
X-2601916Y+658401D01*
X-2542401Y+717916D01*
X-2542401Y+789759D01*
X-2491599Y+840561D01*
X-2491599Y+658401D01*
X-2440799Y+658401D01*
X-2440799Y+527459D01*
X-2372541Y+459201D01*
X-1384299Y+459201D01*
X-1384299Y-47541D01*
X-1063541Y-368299D01*
X-940799Y-368299D01*
X-940799Y-995959D01*
X-1004041Y-1059201D01*
X-1391041Y-1059201D01*
X-1511299Y-1179459D01*
X-1511299Y-1420541D01*
X-1445722Y-1486118D01*
X-1446999Y-1487395D01*
X-1446999Y-1592605D01*
X-1372605Y-1666999D01*
X-1267395Y-1666999D01*
X-1193001Y-1592605D01*
X-1193001Y-1590799D01*
X-1100541Y-1590799D01*
X-1020541Y-1670799D01*
X-804299Y-1670799D01*
X-804299Y-1785099D01*
X-575701Y-1785099D01*
X-575701Y-1454901D01*
X-804299Y-1454901D01*
X-804299Y-1569201D01*
X-978459Y-1569201D01*
X-1058459Y-1489201D01*
X-1193001Y-1489201D01*
X-1193001Y-1487395D01*
X-1267395Y-1413001D01*
X-1372605Y-1413001D01*
X-1373882Y-1414278D01*
X-1409701Y-1378459D01*
X-1409701Y-1329903D01*
X-1372605Y-1366999D01*
X-1267395Y-1366999D01*
X-1193001Y-1292605D01*
X-1193001Y-1290799D01*
X-837959Y-1290799D01*
X-740959Y-1193799D01*
X-529041Y-1193799D01*
X-486799Y-1236041D01*
X-486799Y-1454901D01*
X-550299Y-1454901D01*
X-550299Y-1785099D01*
X-321701Y-1785099D01*
X-321701Y-1454901D01*
X-385201Y-1454901D01*
X-385201Y-1193959D01*
X-486959Y-1092201D01*
X-740959Y-1092201D01*
X-769201Y-1063959D01*
X-769201Y-1023099D01*
X-575701Y-1023099D01*
X-575701Y-692901D01*
X-769201Y-692901D01*
X-769201Y-148960D01*
X-798959Y-119202D01*
X-1048957Y-119202D01*
X-1076960Y-91199D01*
X-614801Y-91199D01*
X-614801Y+188199D01*
X-875461Y+188199D01*
X-509201Y+554459D01*
X-509201Y+1164041D01*
X-602459Y+1257299D01*
X-1189459Y+1257299D01*
X-1278278Y+1346118D01*
X-1277001Y+1347395D01*
X-1277001Y+1452605D01*
X-1351395Y+1526999D01*
X-1456605Y+1526999D01*
X-1530999Y+1452605D01*
X-1530999Y+1347395D01*
X-1456605Y+1273001D01*
X-1351395Y+1273001D01*
X-1350118Y+1274278D01*
X-1231541Y+1155701D01*
X-644541Y+1155701D01*
X-610799Y+1121959D01*
X-610799Y+596541D01*
X-626301Y+581039D01*
X-626301Y+859699D01*
X-1159699Y+859699D01*
X-1159699Y+770799D01*
X-1312959Y+770799D01*
X-1374278Y+832118D01*
X-1373001Y+833395D01*
X-1373001Y+938605D01*
X-1447395Y+1012999D01*
X-1552605Y+1012999D01*
X-1620000Y+945604D01*
X-1687395Y+1012999D01*
X-1792605Y+1012999D01*
X-1865000Y+940604D01*
X-1937395Y+1012999D01*
X-1939201Y+1012999D01*
X-1939201Y+1448959D01*
X-1858959Y+1529201D01*
X-1287541Y+1529201D01*
X-1227541Y+1469201D01*
X-1179699Y+1469201D01*
X-1179699Y+1380301D01*
X-646301Y+1380301D01*
X-646301Y+1659201D01*
X-529041Y+1659201D01*
X-495299Y+1625459D01*
X-495299Y+913459D01*
X-369699Y+787859D01*
X-369699Y+580301D01*
X+163699Y+580301D01*
X+163699Y+859699D01*
X-297859Y+859699D01*
X-393701Y+955541D01*
X-393701Y+1667541D01*
X-486959Y+1760799D01*
X-1277001Y+1760799D01*
X-1277001Y+1762605D01*
X-1305097Y+1790701D01*
X-338541Y+1790701D01*
X-280799Y+1732959D01*
X-280799Y+1659699D01*
X-369699Y+1659699D01*
X-369699Y+1380301D01*
X+163699Y+1380301D01*
X+163699Y+1659699D01*
X-179201Y+1659699D01*
X-179201Y+1775041D01*
X-296459Y+1892299D01*
X-1728097Y+1892299D01*
X-1673001Y+1947395D01*
X-1673001Y+2052605D01*
X-1747395Y+2126999D01*
X-1852605Y+2126999D01*
X-1926999Y+2052605D01*
X-1926999Y+1947395D01*
X-1871903Y+1892299D01*
X-2116541Y+1892299D01*
X-2209799Y+1799041D01*
X-2209799Y+884639D01*
X-2328458Y+1003298D01*
X-2472542Y+1003298D01*
X-2614241Y+861599D01*
X-2686084Y+861599D01*
X-2743201Y+804482D01*
X-2743201Y+1004959D01*
X-2473882Y+1274278D01*
X-2472605Y+1273001D01*
X-2367395Y+1273001D01*
X-2293001Y+1347395D01*
X-2293001Y+1452605D01*
X-2367395Y+1526999D01*
X-2472605Y+1526999D01*
X-2546999Y+1452605D01*
X-2546999Y+1347395D01*
X-2545722Y+1346118D01*
X-2844799Y+1047041D01*
X-2844799Y+850482D01*
X-2855916Y+861599D01*
X-2940084Y+861599D01*
X-2969201Y+832482D01*
X-2969201Y+1272459D01*
X-2582459Y+1659201D01*
X-2546999Y+1659201D01*
X-2546999Y+1657395D01*
X-2472605Y+1583001D01*
X-2367395Y+1583001D01*
X-2293001Y+1657395D01*
X-2293001Y+1762605D01*
X-2367395Y+1836999D01*
X-2472605Y+1836999D01*
X-2546999Y+1762605D01*
X-2546999Y+1760799D01*
X-2624541Y+1760799D01*
X-3070799Y+1314541D01*
X-3070799Y+822482D01*
X-3101201Y+852884D01*
X-3101201Y+1174168D01*
X-3534959Y+1607926D01*
X-3822086Y+1607926D01*
X-3886202Y+1672042D01*
X-3886202Y+1706598D01*
X-3862605Y+1683001D01*
X-3757395Y+1683001D01*
X-3683001Y+1757395D01*
X-3683001Y+1759201D01*
X-3369699Y+1759201D01*
X-3369699Y+1752135D01*
X-3300564Y+1683000D01*
X-3369699Y+1613865D01*
X-3369699Y+1498135D01*
X-3287865Y+1416301D01*
X-3172135Y+1416301D01*
X-3090301Y+1498135D01*
X-3090301Y+1613865D01*
X-3159436Y+1683000D01*
X-3090301Y+1752135D01*
X-3090301Y+1867865D01*
X-3095298Y+1872862D01*
X-2796459Y+2171701D01*
X-2338459Y+2171701D01*
X-2245201Y+2264959D01*
X-2245201Y+2380301D01*
X-2156301Y+2380301D01*
X-2156301Y+2469201D01*
X-2053041Y+2469201D01*
X-2041041Y+2457201D01*
X-1926999Y+2457201D01*
X-1926999Y+2455395D01*
X-1852605Y+2381001D01*
X-1747395Y+2381001D01*
X-1673001Y+2455395D01*
X-1673001Y+2560605D01*
X-1747395Y+2634999D01*
X-1852605Y+2634999D01*
X-1926999Y+2560605D01*
X-1926999Y+2558799D01*
X-1998959Y+2558799D01*
X-2010959Y+2570799D01*
X-2156301Y+2570799D01*
X-2156301Y+2659699D01*
X-2943699Y+2659699D01*
X-2943699Y+2570799D01*
X-3260959Y+2570799D01*
X-3314701Y+2624542D01*
X-3314701Y+2791097D01*
X-3266605Y+2743001D01*
X-3161395Y+2743001D01*
X-3087001Y+2817395D01*
X-3087001Y+2922605D01*
X-3161395Y+2996999D01*
X-3266605Y+2996999D01*
X-3314701Y+2948903D01*
X-3314701Y+3153959D01*
X-3280959Y+3187701D01*
X-2888943Y+3187701D01*
X-2934999Y+3141645D01*
X-2934999Y+3036435D01*
X-2860605Y+2962041D01*
X-2755395Y+2962041D01*
X-2681001Y+3036435D01*
X-2681001Y+3141645D01*
X-2727057Y+3187701D01*
X-2470501Y+3187701D01*
X-2425722Y+3142922D01*
X-2426999Y+3141645D01*
X-2426999Y+3036435D01*
X-2352605Y+2962041D01*
X-2247395Y+2962041D01*
X-2173001Y+3036435D01*
X-2173001Y+3141645D01*
X-2247395Y+3216039D01*
X-2352605Y+3216039D01*
X-2353882Y+3214762D01*
X-2378160Y+3239040D01*
X+329040Y+3239040D01*
X+329040Y-2099040D01*
G37*
%LPC*%
G36*
X-2827395Y-1966999D02*
X-2932605Y-1966999D01*
X-3006999Y-1892605D01*
X-3006999Y-1787395D01*
X-2932605Y-1713001D01*
X-2827395Y-1713001D01*
X-2753001Y-1787395D01*
X-2753001Y-1892605D01*
X-2827395Y-1966999D01*
G37*
G36*
X-3347395Y-1976999D02*
X-3452605Y-1976999D01*
X-3526999Y-1902605D01*
X-3526999Y-1797395D01*
X-3452605Y-1723001D01*
X-3347395Y-1723001D01*
X-3273001Y-1797395D01*
X-3273001Y-1902605D01*
X-3347395Y-1976999D01*
G37*
G36*
X-42299Y-692901D02*
X+186299Y-692901D01*
X+186299Y-1023099D01*
X-42299Y-1023099D01*
X-42299Y-692901D01*
G37*
G36*
X-296299Y-692901D02*
X-67701Y-692901D01*
X-67701Y-1023099D01*
X-296299Y-1023099D01*
X-296299Y-692901D01*
G37*
G36*
X-550299Y-692901D02*
X-321701Y-692901D01*
X-321701Y-1023099D01*
X-550299Y-1023099D01*
X-550299Y-692901D01*
G37*
G36*
X+163699Y-109699D02*
X-179201Y-109699D01*
X-179201Y-343001D01*
X-101395Y-343001D01*
X-27001Y-417395D01*
X-27001Y-522605D01*
X-101395Y-596999D01*
X-206605Y-596999D01*
X-280999Y-522605D01*
X-280999Y-417395D01*
X-279722Y-416118D01*
X-280799Y-415041D01*
X-280799Y-109699D01*
X-369699Y-109699D01*
X-369699Y+169699D01*
X+163699Y+169699D01*
X+163699Y-109699D01*
G37*
G36*
X-3862605Y+1428999D02*
X-3757395Y+1428999D01*
X-3683001Y+1354605D01*
X-3683001Y+1249395D01*
X-3757395Y+1175001D01*
X-3862605Y+1175001D01*
X-3936999Y+1249395D01*
X-3936999Y+1354605D01*
X-3862605Y+1428999D01*
G37*
G36*
X-4383599Y-1327054D02*
X-4383599Y-1232946D01*
X-4317054Y-1166401D01*
X-4222946Y-1166401D01*
X-4156401Y-1232946D01*
X-4156401Y-1327054D01*
X-4222946Y-1393599D01*
X-4317054Y-1393599D01*
X-4383599Y-1327054D01*
G37*
%LPD*%
G36*
X-4692999Y+2442605D02*
X-4692999Y+2337395D01*
X-4618605Y+2263001D01*
X-4513395Y+2263001D01*
X-4512118Y+2264278D01*
X-4423579Y+2175739D01*
X-4423579Y+2031939D01*
X-4489563Y+2031939D01*
X-4654719Y+1866783D01*
X-4654719Y+1633217D01*
X-4581001Y+1559499D01*
X-4781779Y+1559499D01*
X-4708061Y+1633217D01*
X-4708061Y+1866783D01*
X-4873217Y+2031939D01*
X-5106783Y+2031939D01*
X-5249202Y+1889520D01*
X-5249202Y+2455458D01*
X-5215459Y+2489201D01*
X-4646403Y+2489201D01*
X-4692999Y+2442605D01*
G37*
G36*
X-1159699Y+580301D02*
X-627039Y+580301D01*
X-1019141Y+188199D01*
X-1148199Y+188199D01*
X-1148199Y-19960D01*
X-1219201Y+51042D01*
X-1219201Y+601041D01*
X-1287361Y+669201D01*
X-1159699Y+669201D01*
X-1159699Y+580301D01*
G37*
D10*
X-1740000Y+886000D02*
X-1927500Y+698500D01*
X-2095500Y+698500D01*
X-2159000Y+762000D01*
X-2159000Y+1778000D01*
X-2095500Y+1841500D01*
X-317500Y+1841500D01*
X-230000Y+1754000D01*
X-230000Y+1520000D01*
X-1020000Y+720000D02*
X-1334000Y+720000D01*
X-1500000Y+886000D01*
X-1404000Y+1710000D02*
X-508000Y+1710000D01*
X-444500Y+1646500D01*
X-444500Y+934500D01*
X-230000Y+720000D01*
X-4680000Y+2974000D02*
X-4508500Y+2974000D01*
X-4404500Y+2870000D01*
X-4230000Y+2870000D01*
X-4372780Y+1750000D02*
X-4372780Y+2196780D01*
X-4566000Y+2390000D01*
X-3365500Y+2603500D02*
X-3365500Y+3175000D01*
X-3302000Y+3238500D01*
X-2449460Y+3238500D01*
X-2300000Y+3089040D01*
X-3365500Y+2603500D02*
X-3550000Y+2603500D01*
X-3550000Y+2390000D01*
X-3365500Y+2603500D02*
X-3282000Y+2520000D01*
X-2804000Y+2520000D01*
X-1320000Y-1540000D02*
X-1079500Y-1540000D01*
X-999500Y-1620000D01*
X-690000Y-1620000D01*
X-762000Y-1143000D02*
X-508000Y-1143000D01*
X-436000Y-1215000D01*
X-436000Y-1620000D01*
X-762000Y-1143000D02*
X-859000Y-1240000D01*
X-1320000Y-1240000D01*
X-1524000Y-762000D02*
X-1462000Y-762000D01*
X-1330000Y-630000D01*
X-2890000Y-720000D02*
X-2890000Y-952500D01*
X-2880000Y-962500D01*
X-2880000Y-1332000D01*
X-2890000Y-720000D02*
X-2890000Y-317500D01*
X-2898000Y-309500D01*
X-2898000Y-2000D01*
X-3398000Y-720000D02*
X-3152000Y-474000D01*
X-3152000Y-2000D01*
X-3398000Y-720000D02*
X-3398000Y-952500D01*
X-3400000Y-954500D01*
X-3400000Y-1342000D01*
X-2420000Y+1400000D02*
X-2794000Y+1026000D01*
X-2794000Y+635000D01*
X-2857500Y+571500D01*
X-3660000Y+571500D01*
X-3660000Y+760000D01*
X-4422000Y-2000D02*
X-4572000Y-2000D01*
X-4572000Y+190500D01*
X-4508500Y+254000D01*
X-2095500Y+254000D01*
X-1990000Y+148500D01*
X-1990000Y-130000D01*
X-1500000Y-130000D02*
X-1500000Y+317500D01*
X-1563500Y+381000D01*
X-3810000Y+381000D01*
X-3914000Y+485000D01*
X-3914000Y+760000D01*
X-3914000Y-2000D02*
X-3914000Y-254000D01*
X-3977500Y-317500D01*
X-5158500Y-317500D01*
X-5300000Y-176000D01*
X-3660000Y-2000D02*
X-3789000Y+127000D01*
X-4000500Y+127000D01*
X-4064000Y+63500D01*
X-4064000Y-63500D01*
X-4127500Y-127000D01*
X-4635500Y-127000D01*
X-4840500Y+78000D01*
X-5300000Y+78000D01*
X-5300000Y+840000D02*
X-5300000Y+2476500D01*
X-5236500Y+2540000D01*
X-4000500Y+2540000D01*
X-3937000Y+2476500D01*
X-3937000Y+1651000D01*
X-3843127Y+1557127D01*
X-3556000Y+1557127D01*
X-3152000Y+1153127D01*
X-3152000Y+760000D01*
X-5300000Y+840000D02*
X-5461000Y+840000D01*
X-5524500Y+776500D01*
X-5524500Y-1206500D01*
X-5451000Y-1280000D01*
X-4770000Y-1280000D01*
X-4770000Y-762000D01*
X-4658000Y-650000D01*
X-4294000Y-650000D01*
X-4680000Y+2720000D02*
X-5524500Y+2720000D01*
X-5588000Y+2656500D01*
X-5588000Y-1397000D01*
X-5524500Y-1460500D01*
X-4572000Y-1460500D01*
X-4508500Y-1397000D01*
X-4508500Y-1079500D01*
X-4127500Y-698500D01*
X-4127500Y-508000D01*
X-4680000Y+2720000D02*
X-3873500Y+2720000D01*
X-3810000Y+2656500D01*
X-3810000Y+1810000D01*
X-2296000Y+2520000D02*
X-2296000Y+2286000D01*
X-2359500Y+2222500D01*
X-2817500Y+2222500D01*
X-3230000Y+1810000D01*
X-2336000Y-1540000D02*
X-3556000Y-1540000D01*
X-3619500Y-1476500D01*
X-3619500Y-444500D01*
X-5397500Y-444500D02*
X-5461000Y-381000D01*
X-5461000Y+586000D01*
X-5300000Y+586000D01*
X-3619500Y-444500D02*
X-3406000Y-231000D01*
X-3406000Y-2000D01*
X-5397500Y-444500D02*
X-5461000Y-508000D01*
X-5461000Y-650000D01*
X-5310000Y-650000D01*
X-2296000Y+2520000D02*
X-2032000Y+2520000D01*
X-2020000Y+2508000D01*
X-1800000Y+2508000D01*
X-2336000Y-1240000D02*
X-2346000Y-1230000D01*
X-2346000Y-930000D01*
X-4127500Y-508000D02*
X-4191000Y-444500D01*
X-5397500Y-444500D01*
X-3810000Y+1810000D02*
X-3230000Y+1810000D01*
X-4127500Y-508000D02*
X-4064000Y-444500D01*
X-3619500Y-444500D01*
X-2346000Y-930000D02*
X-2346000Y-630000D01*
X-2336000Y-1540000D02*
X-2336000Y-1240000D01*
X-2420000Y+1710000D02*
X-2603500Y+1710000D01*
X-3020000Y+1293500D01*
X-3020000Y+726500D01*
X-3111500Y+635000D01*
X-3492500Y+635000D01*
X-3556000Y+698500D01*
X-3556000Y+889000D01*
X-3619500Y+952500D01*
X-3975500Y+952500D01*
X-4168000Y+760000D01*
X-1740000Y-130000D02*
X-1740000Y+254000D01*
X-1803500Y+317500D01*
X-3979500Y+317500D01*
X-4422000Y+760000D01*
X-182000Y-1620000D02*
X-182000Y-1397000D01*
X-169000Y-1410000D01*
X+203500Y-1410000D01*
X+240000Y-1446500D01*
X+240000Y-1855500D01*
X+65500Y-2030000D01*
X-1780000Y-2030000D01*
X-1936648Y-1873352D01*
X-1936648Y-571500D01*
X-2008998Y-499150D01*
X-2730500Y-499150D01*
X-2794000Y-435650D01*
X-2794000Y+63500D01*
X-2730500Y+127000D01*
X-2519000Y+127000D01*
X-2390000Y-2000D01*
X-2644000Y-2000D02*
X-2644000Y-340500D01*
X-2540000Y-444500D01*
X-1841500Y-444500D01*
X-1524000Y-762000D01*
X-182000Y-1620000D02*
X-182000Y-1841500D01*
X-1460500Y-1841500D01*
X-1620000Y-1682000D01*
X-1620000Y-930000D01*
X-1330000Y-930000D01*
X-1524000Y-762000D02*
X-1850000Y-762000D01*
X-1850000Y-1800000D01*
X-1745000Y-1905000D01*
X+0Y-1905000D01*
X+72000Y-1833000D01*
X+72000Y-1620000D01*
X-1170000Y-470000D02*
X-1206500Y-470000D01*
X-1295500Y-381000D01*
X-2222500Y-381000D01*
X-2286000Y-317500D01*
X-2286000Y+127000D01*
X-2349500Y+190500D01*
X-4168000Y+190500D01*
X-4168000Y-2000D01*
X-1008500Y+48500D02*
X-1008500Y+127000D01*
X-560000Y+575500D01*
X-560000Y+1143000D01*
X-623500Y+1206500D01*
X-1210500Y+1206500D01*
X-1404000Y+1400000D01*
X-762000Y-1143000D02*
X-820000Y-1085000D01*
X-820000Y-170000D01*
X-1069999Y-170000D01*
X-1270000Y+30001D01*
X-1270000Y+580000D01*
X-1320000Y+630000D01*
X-2227500Y+630000D01*
X-2220000Y+637500D01*
X-2220000Y+823000D01*
X-2349500Y+952500D01*
X-2451500Y+952500D01*
X-2644000Y+760000D01*
X-1320000Y-1540000D02*
X-1460500Y-1399500D01*
X-1460500Y-1200500D01*
X-1370000Y-1110000D01*
X-983000Y-1110000D01*
X-890000Y-1017000D01*
X-890000Y-317500D01*
X-1042500Y-317500D01*
X-1333500Y-26500D01*
X-1333500Y+510000D01*
X-2351500Y+510000D01*
X-2390000Y+548500D01*
X-2390000Y+760000D01*
X-1040000Y+1520000D02*
X-1206500Y+1520000D01*
X-1266500Y+1580000D01*
X-1880000Y+1580000D01*
X-1990000Y+1470000D01*
X-1990000Y+886000D01*
X-230000Y+30000D02*
X-230000Y-394000D01*
X-154000Y-470000D01*
X+329040Y-2099040D02*
X-5739040Y-2099040D01*
X-5739040Y+3239040D01*
X-3373300Y+3239040D01*
X-3416299Y+3196041D01*
X-3416299Y+2654299D01*
X-3571041Y+2654299D01*
X-3600799Y+2624541D01*
X-3600799Y+2516999D01*
X-3602605Y+2516999D01*
X-3676999Y+2442605D01*
X-3676999Y+2337395D01*
X-3602605Y+2263001D01*
X-3497395Y+2263001D01*
X-3423001Y+2337395D01*
X-3423001Y+2442605D01*
X-3497395Y+2516999D01*
X-3499201Y+2516999D01*
X-3499201Y+2552701D01*
X-3386541Y+2552701D01*
X-3303041Y+2469201D01*
X-2943699Y+2469201D01*
X-2943699Y+2380301D01*
X-2346799Y+2380301D01*
X-2346799Y+2307041D01*
X-2380541Y+2273299D01*
X-2838541Y+2273299D01*
X-3167138Y+1944702D01*
X-3172135Y+1949699D01*
X-3287865Y+1949699D01*
X-3369699Y+1867865D01*
X-3369699Y+1860799D01*
X-3683001Y+1860799D01*
X-3683001Y+1862605D01*
X-3757395Y+1936999D01*
X-3759201Y+1936999D01*
X-3759201Y+2677541D01*
X-3852459Y+2770799D01*
X-4149597Y+2770799D01*
X-4103001Y+2817395D01*
X-4103001Y+2922605D01*
X-4177395Y+2996999D01*
X-4282605Y+2996999D01*
X-4356999Y+2922605D01*
X-4356999Y+2920799D01*
X-4383459Y+2920799D01*
X-4487459Y+3024799D01*
X-4540301Y+3024799D01*
X-4540301Y+3113699D01*
X-4819699Y+3113699D01*
X-4819699Y+2770799D01*
X-5545542Y+2770798D01*
X-5638799Y+2677541D01*
X-5638799Y-1418041D01*
X-5545541Y-1511299D01*
X-4550959Y-1511299D01*
X-4457701Y-1418041D01*
X-4457701Y-1100541D01*
X-4076701Y-719541D01*
X-4076701Y-529041D01*
X-4042959Y-495299D01*
X-3670299Y-495299D01*
X-3670299Y-1497541D01*
X-3577041Y-1590799D01*
X-2462999Y-1590799D01*
X-2462999Y-1592605D01*
X-2388605Y-1666999D01*
X-2283395Y-1666999D01*
X-2209001Y-1592605D01*
X-2209001Y-1487395D01*
X-2283395Y-1413001D01*
X-2285201Y-1413001D01*
X-2285201Y-1366999D01*
X-2283395Y-1366999D01*
X-2209001Y-1292605D01*
X-2209001Y-1187395D01*
X-2283395Y-1113001D01*
X-2295201Y-1113001D01*
X-2295201Y-1056999D01*
X-2293395Y-1056999D01*
X-2219001Y-982605D01*
X-2219001Y-877395D01*
X-2293395Y-803001D01*
X-2295201Y-803001D01*
X-2295201Y-756999D01*
X-2293395Y-756999D01*
X-2219001Y-682605D01*
X-2219001Y-577395D01*
X-2246447Y-549949D01*
X-2030039Y-549949D01*
X-1987447Y-592541D01*
X-1987447Y-1894393D01*
X-1801041Y-2080799D01*
X+86541Y-2080799D01*
X+290798Y-1876542D01*
X+290798Y-1425458D01*
X+224541Y-1359201D01*
X-147959Y-1359201D01*
X-170081Y-1337079D01*
X-232799Y-1363059D01*
X-232799Y-1454901D01*
X-296299Y-1454901D01*
X-296299Y-1785099D01*
X-232799Y-1785099D01*
X-232799Y-1790701D01*
X-1439459Y-1790701D01*
X-1569201Y-1660959D01*
X-1569201Y-980799D01*
X-1456999Y-980799D01*
X-1456999Y-982605D01*
X-1382605Y-1056999D01*
X-1277395Y-1056999D01*
X-1203001Y-982605D01*
X-1203001Y-877395D01*
X-1277395Y-803001D01*
X-1382605Y-803001D01*
X-1456999Y-877395D01*
X-1456999Y-879201D01*
X-1641041Y-879201D01*
X-1670799Y-908959D01*
X-1670799Y-1703041D01*
X-1519639Y-1854201D01*
X-1723959Y-1854201D01*
X-1799201Y-1778959D01*
X-1799201Y-812799D01*
X-1440959Y-812799D01*
X-1383882Y-755722D01*
X-1382605Y-756999D01*
X-1277395Y-756999D01*
X-1203001Y-682605D01*
X-1203001Y-596999D01*
X-1117395Y-596999D01*
X-1043001Y-522605D01*
X-1043001Y-417395D01*
X-1117395Y-343001D01*
X-1222605Y-343001D01*
X-1242132Y-362528D01*
X-1274459Y-330201D01*
X-2201459Y-330201D01*
X-2235201Y-296459D01*
X-2235201Y+148041D01*
X-2290361Y+203201D01*
X-2116541Y+203201D01*
X-2040798Y+127458D01*
X-2040799Y-3001D01*
X-2042605Y-3001D01*
X-2116999Y-77395D01*
X-2116999Y-182605D01*
X-2042605Y-256999D01*
X-1937395Y-256999D01*
X-1865000Y-184604D01*
X-1792605Y-256999D01*
X-1687395Y-256999D01*
X-1620000Y-189604D01*
X-1552605Y-256999D01*
X-1447395Y-256999D01*
X-1373001Y-182605D01*
X-1373001Y-77395D01*
X-1447395Y-3001D01*
X-1449201Y-3001D01*
X-1449201Y+338541D01*
X-1542458Y+431798D01*
X-3788958Y+431798D01*
X-3863201Y+506041D01*
X-3863201Y+667116D01*
X-3812401Y+717916D01*
X-3812401Y+802084D01*
X-3871916Y+861599D01*
X-3956084Y+861599D01*
X-4015599Y+802084D01*
X-4015599Y+717916D01*
X-3964799Y+667116D01*
X-3964799Y+463959D01*
X-3869139Y+368299D01*
X-3958459Y+368299D01*
X-4320401Y+730241D01*
X-4320401Y+802084D01*
X-4379916Y+861599D01*
X-4464084Y+861599D01*
X-4523599Y+802084D01*
X-4523599Y+717916D01*
X-4464084Y+658401D01*
X-4392241Y+658401D01*
X-4038639Y+304799D01*
X-4529541Y+304799D01*
X-4622799Y+211541D01*
X-4622799Y-23041D01*
X-4593041Y-52799D01*
X-4514884Y-52799D01*
X-4491482Y-76201D01*
X-4614459Y-76201D01*
X-4819459Y+128799D01*
X-5160301Y+128799D01*
X-5160301Y+979699D01*
X-5249201Y+979699D01*
X-5249201Y+1610479D01*
X-5106783Y+1468061D01*
X-4883261Y+1468061D01*
X-4956979Y+1394343D01*
X-4956979Y+1160777D01*
X-4791823Y+995621D01*
X-4558257Y+995621D01*
X-4393101Y+1160777D01*
X-4393101Y+1394343D01*
X-4466819Y+1468061D01*
X-4255997Y+1468061D01*
X-4090841Y+1633217D01*
X-4090841Y+1866783D01*
X-4255997Y+2031939D01*
X-4321981Y+2031939D01*
X-4321981Y+2217821D01*
X-4440278Y+2336118D01*
X-4439001Y+2337395D01*
X-4439001Y+2442605D01*
X-4485597Y+2489201D01*
X-4021541Y+2489201D01*
X-3987798Y+2455458D01*
X-3987798Y+1629958D01*
X-3864168Y+1506328D01*
X-3577041Y+1506328D01*
X-3202799Y+1132086D01*
X-3202799Y+852884D01*
X-3253599Y+802084D01*
X-3253599Y+717916D01*
X-3221482Y+685799D01*
X-3336518Y+685799D01*
X-3304401Y+717916D01*
X-3304401Y+802084D01*
X-3363916Y+861599D01*
X-3448084Y+861599D01*
X-3505201Y+804482D01*
X-3505201Y+910041D01*
X-3598459Y+1003299D01*
X-3996541Y+1003299D01*
X-4138241Y+861599D01*
X-4210084Y+861599D01*
X-4269599Y+802084D01*
X-4269599Y+717916D01*
X-4210084Y+658401D01*
X-4125916Y+658401D01*
X-4066401Y+717916D01*
X-4066401Y+789759D01*
X-3954459Y+901701D01*
X-3640541Y+901701D01*
X-3606799Y+867959D01*
X-3606799Y+850482D01*
X-3617916Y+861599D01*
X-3702084Y+861599D01*
X-3761599Y+802084D01*
X-3761599Y+717916D01*
X-3710799Y+667116D01*
X-3710799Y+550459D01*
X-3681041Y+520701D01*
X-2836459Y+520701D01*
X-2743201Y+613959D01*
X-2743201Y+715518D01*
X-2686084Y+658401D01*
X-2601916Y+658401D01*
X-2542401Y+717916D01*
X-2542401Y+789759D01*
X-2491599Y+840561D01*
X-2491599Y+658401D01*
X-2440799Y+658401D01*
X-2440799Y+527459D01*
X-2372541Y+459201D01*
X-1384299Y+459201D01*
X-1384299Y-47541D01*
X-1063541Y-368299D01*
X-940799Y-368299D01*
X-940799Y-995959D01*
X-1004041Y-1059201D01*
X-1391041Y-1059201D01*
X-1511299Y-1179459D01*
X-1511299Y-1420541D01*
X-1445722Y-1486118D01*
X-1446999Y-1487395D01*
X-1446999Y-1592605D01*
X-1372605Y-1666999D01*
X-1267395Y-1666999D01*
X-1193001Y-1592605D01*
X-1193001Y-1590799D01*
X-1100541Y-1590799D01*
X-1020541Y-1670799D01*
X-804299Y-1670799D01*
X-804299Y-1785099D01*
X-575701Y-1785099D01*
X-575701Y-1454901D01*
X-804299Y-1454901D01*
X-804299Y-1569201D01*
X-978459Y-1569201D01*
X-1058459Y-1489201D01*
X-1193001Y-1489201D01*
X-1193001Y-1487395D01*
X-1267395Y-1413001D01*
X-1372605Y-1413001D01*
X-1373882Y-1414278D01*
X-1409701Y-1378459D01*
X-1409701Y-1329903D01*
X-1372605Y-1366999D01*
X-1267395Y-1366999D01*
X-1193001Y-1292605D01*
X-1193001Y-1290799D01*
X-837959Y-1290799D01*
X-740959Y-1193799D01*
X-529041Y-1193799D01*
X-486799Y-1236041D01*
X-486799Y-1454901D01*
X-550299Y-1454901D01*
X-550299Y-1785099D01*
X-321701Y-1785099D01*
X-321701Y-1454901D01*
X-385201Y-1454901D01*
X-385201Y-1193959D01*
X-486959Y-1092201D01*
X-740959Y-1092201D01*
X-769201Y-1063959D01*
X-769201Y-1023099D01*
X-575701Y-1023099D01*
X-575701Y-692901D01*
X-769201Y-692901D01*
X-769201Y-148960D01*
X-798959Y-119202D01*
X-1048957Y-119202D01*
X-1076960Y-91199D01*
X-614801Y-91199D01*
X-614801Y+188199D01*
X-875461Y+188199D01*
X-509201Y+554459D01*
X-509201Y+1164041D01*
X-602459Y+1257299D01*
X-1189459Y+1257299D01*
X-1278278Y+1346118D01*
X-1277001Y+1347395D01*
X-1277001Y+1452605D01*
X-1351395Y+1526999D01*
X-1456605Y+1526999D01*
X-1530999Y+1452605D01*
X-1530999Y+1347395D01*
X-1456605Y+1273001D01*
X-1351395Y+1273001D01*
X-1350118Y+1274278D01*
X-1231541Y+1155701D01*
X-644541Y+1155701D01*
X-610799Y+1121959D01*
X-610799Y+596541D01*
X-626301Y+581039D01*
X-626301Y+859699D01*
X-1159699Y+859699D01*
X-1159699Y+770799D01*
X-1312959Y+770799D01*
X-1374278Y+832118D01*
X-1373001Y+833395D01*
X-1373001Y+938605D01*
X-1447395Y+1012999D01*
X-1552605Y+1012999D01*
X-1620000Y+945604D01*
X-1687395Y+1012999D01*
X-1792605Y+1012999D01*
X-1865000Y+940604D01*
X-1937395Y+1012999D01*
X-1939201Y+1012999D01*
X-1939201Y+1448959D01*
X-1858959Y+1529201D01*
X-1287541Y+1529201D01*
X-1227541Y+1469201D01*
X-1179699Y+1469201D01*
X-1179699Y+1380301D01*
X-646301Y+1380301D01*
X-646301Y+1659201D01*
X-529041Y+1659201D01*
X-495299Y+1625459D01*
X-495299Y+913459D01*
X-369699Y+787859D01*
X-369699Y+580301D01*
X+163699Y+580301D01*
X+163699Y+859699D01*
X-297859Y+859699D01*
X-393701Y+955541D01*
X-393701Y+1667541D01*
X-486959Y+1760799D01*
X-1277001Y+1760799D01*
X-1277001Y+1762605D01*
X-1305097Y+1790701D01*
X-338541Y+1790701D01*
X-280799Y+1732959D01*
X-280799Y+1659699D01*
X-369699Y+1659699D01*
X-369699Y+1380301D01*
X+163699Y+1380301D01*
X+163699Y+1659699D01*
X-179201Y+1659699D01*
X-179201Y+1775041D01*
X-296459Y+1892299D01*
X-1728097Y+1892299D01*
X-1673001Y+1947395D01*
X-1673001Y+2052605D01*
X-1747395Y+2126999D01*
X-1852605Y+2126999D01*
X-1926999Y+2052605D01*
X-1926999Y+1947395D01*
X-1871903Y+1892299D01*
X-2116541Y+1892299D01*
X-2209799Y+1799041D01*
X-2209799Y+884639D01*
X-2328458Y+1003298D01*
X-2472542Y+1003298D01*
X-2614241Y+861599D01*
X-2686084Y+861599D01*
X-2743201Y+804482D01*
X-2743201Y+1004959D01*
X-2473882Y+1274278D01*
X-2472605Y+1273001D01*
X-2367395Y+1273001D01*
X-2293001Y+1347395D01*
X-2293001Y+1452605D01*
X-2367395Y+1526999D01*
X-2472605Y+1526999D01*
X-2546999Y+1452605D01*
X-2546999Y+1347395D01*
X-2545722Y+1346118D01*
X-2844799Y+1047041D01*
X-2844799Y+850482D01*
X-2855916Y+861599D01*
X-2940084Y+861599D01*
X-2969201Y+832482D01*
X-2969201Y+1272459D01*
X-2582459Y+1659201D01*
X-2546999Y+1659201D01*
X-2546999Y+1657395D01*
X-2472605Y+1583001D01*
X-2367395Y+1583001D01*
X-2293001Y+1657395D01*
X-2293001Y+1762605D01*
X-2367395Y+1836999D01*
X-2472605Y+1836999D01*
X-2546999Y+1762605D01*
X-2546999Y+1760799D01*
X-2624541Y+1760799D01*
X-3070799Y+1314541D01*
X-3070799Y+822482D01*
X-3101201Y+852884D01*
X-3101201Y+1174168D01*
X-3534959Y+1607926D01*
X-3822086Y+1607926D01*
X-3886202Y+1672042D01*
X-3886202Y+1706598D01*
X-3862605Y+1683001D01*
X-3757395Y+1683001D01*
X-3683001Y+1757395D01*
X-3683001Y+1759201D01*
X-3369699Y+1759201D01*
X-3369699Y+1752135D01*
X-3300564Y+1683000D01*
X-3369699Y+1613865D01*
X-3369699Y+1498135D01*
X-3287865Y+1416301D01*
X-3172135Y+1416301D01*
X-3090301Y+1498135D01*
X-3090301Y+1613865D01*
X-3159436Y+1683000D01*
X-3090301Y+1752135D01*
X-3090301Y+1867865D01*
X-3095298Y+1872862D01*
X-2796459Y+2171701D01*
X-2338459Y+2171701D01*
X-2245201Y+2264959D01*
X-2245201Y+2380301D01*
X-2156301Y+2380301D01*
X-2156301Y+2469201D01*
X-2053041Y+2469201D01*
X-2041041Y+2457201D01*
X-1926999Y+2457201D01*
X-1926999Y+2455395D01*
X-1852605Y+2381001D01*
X-1747395Y+2381001D01*
X-1673001Y+2455395D01*
X-1673001Y+2560605D01*
X-1747395Y+2634999D01*
X-1852605Y+2634999D01*
X-1926999Y+2560605D01*
X-1926999Y+2558799D01*
X-1998959Y+2558799D01*
X-2010959Y+2570799D01*
X-2156301Y+2570799D01*
X-2156301Y+2659699D01*
X-2943699Y+2659699D01*
X-2943699Y+2570799D01*
X-3260959Y+2570799D01*
X-3314701Y+2624542D01*
X-3314701Y+2791097D01*
X-3266605Y+2743001D01*
X-3161395Y+2743001D01*
X-3087001Y+2817395D01*
X-3087001Y+2922605D01*
X-3161395Y+2996999D01*
X-3266605Y+2996999D01*
X-3314701Y+2948903D01*
X-3314701Y+3153959D01*
X-3280959Y+3187701D01*
X-2888943Y+3187701D01*
X-2934999Y+3141645D01*
X-2934999Y+3036435D01*
X-2860605Y+2962041D01*
X-2755395Y+2962041D01*
X-2681001Y+3036435D01*
X-2681001Y+3141645D01*
X-2727057Y+3187701D01*
X-2470501Y+3187701D01*
X-2425722Y+3142922D01*
X-2426999Y+3141645D01*
X-2426999Y+3036435D01*
X-2352605Y+2962041D01*
X-2247395Y+2962041D01*
X-2173001Y+3036435D01*
X-2173001Y+3141645D01*
X-2247395Y+3216039D01*
X-2352605Y+3216039D01*
X-2353882Y+3214762D01*
X-2378160Y+3239040D01*
X+329040Y+3239040D01*
X+329040Y-2099040D01*
X-2827395Y-1966999D02*
X-2932605Y-1966999D01*
X-3006999Y-1892605D01*
X-3006999Y-1787395D01*
X-2932605Y-1713001D01*
X-2827395Y-1713001D01*
X-2753001Y-1787395D01*
X-2753001Y-1892605D01*
X-2827395Y-1966999D01*
X-3347395Y-1976999D02*
X-3452605Y-1976999D01*
X-3526999Y-1902605D01*
X-3526999Y-1797395D01*
X-3452605Y-1723001D01*
X-3347395Y-1723001D01*
X-3273001Y-1797395D01*
X-3273001Y-1902605D01*
X-3347395Y-1976999D01*
X-42299Y-692901D02*
X+186299Y-692901D01*
X+186299Y-1023099D01*
X-42299Y-1023099D01*
X-42299Y-692901D01*
X-296299Y-692901D02*
X-67701Y-692901D01*
X-67701Y-1023099D01*
X-296299Y-1023099D01*
X-296299Y-692901D01*
X-550299Y-692901D02*
X-321701Y-692901D01*
X-321701Y-1023099D01*
X-550299Y-1023099D01*
X-550299Y-692901D01*
X+163699Y-109699D02*
X-179201Y-109699D01*
X-179201Y-343001D01*
X-101395Y-343001D01*
X-27001Y-417395D01*
X-27001Y-522605D01*
X-101395Y-596999D01*
X-206605Y-596999D01*
X-280999Y-522605D01*
X-280999Y-417395D01*
X-279722Y-416118D01*
X-280799Y-415041D01*
X-280799Y-109699D01*
X-369699Y-109699D01*
X-369699Y+169699D01*
X+163699Y+169699D01*
X+163699Y-109699D01*
X-3862605Y+1428999D02*
X-3757395Y+1428999D01*
X-3683001Y+1354605D01*
X-3683001Y+1249395D01*
X-3757395Y+1175001D01*
X-3862605Y+1175001D01*
X-3936999Y+1249395D01*
X-3936999Y+1354605D01*
X-3862605Y+1428999D01*
X-4383599Y-1327054D02*
X-4383599Y-1232946D01*
X-4317054Y-1166401D01*
X-4222946Y-1166401D01*
X-4156401Y-1232946D01*
X-4156401Y-1327054D01*
X-4222946Y-1393599D01*
X-4317054Y-1393599D01*
X-4383599Y-1327054D01*
X-4692999Y+2442605D02*
X-4692999Y+2337395D01*
X-4618605Y+2263001D01*
X-4513395Y+2263001D01*
X-4512118Y+2264278D01*
X-4423579Y+2175739D01*
X-4423579Y+2031939D01*
X-4489563Y+2031939D01*
X-4654719Y+1866783D01*
X-4654719Y+1633217D01*
X-4581001Y+1559499D01*
X-4781779Y+1559499D01*
X-4708061Y+1633217D01*
X-4708061Y+1866783D01*
X-4873217Y+2031939D01*
X-5106783Y+2031939D01*
X-5249202Y+1889520D01*
X-5249202Y+2455458D01*
X-5215459Y+2489201D01*
X-4646403Y+2489201D01*
X-4692999Y+2442605D01*
X-1159699Y+580301D02*
X-627039Y+580301D01*
X-1019141Y+188199D01*
X-1148199Y+188199D01*
X-1148199Y-19960D01*
X-1219201Y+51042D01*
X-1219201Y+601041D01*
X-1287361Y+669201D01*
X-1159699Y+669201D01*
X-1159699Y+580301D01*
X-3304401Y+760000D02*
X-3406000Y+760000D01*
X-3406000Y+861599D02*
X-3406000Y+760000D01*
X-2880000Y-1966999D02*
X-2880000Y-1840000D01*
X-2880000Y-1713001D02*
X-2880000Y-1840000D01*
X-2753001Y-1840000D02*
X-2880000Y-1840000D01*
X-3006999Y-1840000D02*
X-2880000Y-1840000D01*
X-3400000Y-1976999D02*
X-3400000Y-1850000D01*
X-3400000Y-1723001D02*
X-3400000Y-1850000D01*
X-3273001Y-1850000D02*
X-3400000Y-1850000D01*
X-3526999Y-1850000D02*
X-3400000Y-1850000D01*
X-2681001Y+3089040D02*
X-2808000Y+3089040D01*
X-2934999Y+3089040D02*
X-2808000Y+3089040D01*
X-2808000Y+2962041D02*
X-2808000Y+3089040D01*
X-42299Y-858000D02*
X+72000Y-858000D01*
X+186299Y-858000D02*
X+72000Y-858000D01*
X+72000Y-1023099D02*
X+72000Y-858000D01*
X+72000Y-692901D02*
X+72000Y-858000D01*
X-296299Y-858000D02*
X-182000Y-858000D01*
X-67701Y-858000D02*
X-182000Y-858000D01*
X-182000Y-1023099D02*
X-182000Y-858000D01*
X-182000Y-692901D02*
X-182000Y-858000D01*
X-550299Y-858000D02*
X-436000Y-858000D01*
X-321701Y-858000D02*
X-436000Y-858000D01*
X-436000Y-1023099D02*
X-436000Y-858000D01*
X-436000Y-692901D02*
X-436000Y-858000D01*
X-575701Y-858000D02*
X-690000Y-858000D01*
X-690000Y-1023099D02*
X-690000Y-858000D01*
X-690000Y-692901D02*
X-690000Y-858000D01*
X-646301Y+1520000D02*
X-786000Y+1520000D01*
X-786000Y+1380301D02*
X-786000Y+1520000D01*
X+163699Y+1520000D02*
X+24000Y+1520000D01*
X+24000Y+1380301D02*
X+24000Y+1520000D01*
X+24000Y+1659699D02*
X+24000Y+1520000D01*
X-626301Y+720000D02*
X-766000Y+720000D01*
X-766000Y+580301D02*
X-766000Y+720000D01*
X-766000Y+859699D02*
X-766000Y+720000D01*
X+163699Y+720000D02*
X+24000Y+720000D01*
X+24000Y+580301D02*
X+24000Y+720000D01*
X+24000Y+859699D02*
X+24000Y+720000D01*
X-614801Y+48500D02*
X-754500Y+48500D01*
X-754500Y-91199D02*
X-754500Y+48500D01*
X-754500Y+188199D02*
X-754500Y+48500D01*
X+163699Y+30000D02*
X+24000Y+30000D01*
X+24000Y-109699D02*
X+24000Y+30000D01*
X+24000Y+169699D02*
X+24000Y+30000D01*
X-5160301Y+332000D02*
X-5300000Y+332000D01*
X-4708061Y+1750000D02*
X-4990000Y+1750000D01*
X-4990000Y+1468061D02*
X-4990000Y+1750000D01*
X-4990000Y+2031939D02*
X-4990000Y+1750000D01*
X-4956979Y+1277560D02*
X-4675040Y+1277560D01*
X-4393101Y+1277560D02*
X-4675040Y+1277560D01*
X-4675040Y+995621D02*
X-4675040Y+1277560D01*
X-4675040Y+1559499D02*
X-4675040Y+1277560D01*
X-3087001Y+2870000D02*
X-3214000Y+2870000D01*
X-3214000Y+2743001D02*
X-3214000Y+2870000D01*
X-3214000Y+2996999D02*
X-3214000Y+2870000D01*
X-2550000Y+2380301D02*
X-2550000Y+2520000D01*
X-2550000Y+2659699D02*
X-2550000Y+2520000D01*
X-3810000Y+1428999D02*
X-3810000Y+1302000D01*
X-3810000Y+1175001D02*
X-3810000Y+1302000D01*
X-3936999Y+1302000D02*
X-3810000Y+1302000D01*
X-3683001Y+1302000D02*
X-3810000Y+1302000D01*
X-3230000Y+1416301D02*
X-3230000Y+1556000D01*
X-3369699Y+1556000D02*
X-3230000Y+1556000D01*
X-3090301Y+1556000D02*
X-3230000Y+1556000D01*
X-1800000Y+2126999D02*
X-1800000Y+2000000D01*
X-1673001Y+2000000D02*
X-1800000Y+2000000D01*
X-1926999Y+2000000D02*
X-1800000Y+2000000D01*
X-4383599Y-1280000D02*
X-4270000Y-1280000D01*
X-4156401Y-1280000D02*
X-4270000Y-1280000D01*
X-4270000Y-1393599D02*
X-4270000Y-1280000D01*
X-4270000Y-1166401D02*
X-4270000Y-1280000D01*
D11*
X-2390000Y+760000D03*
D12*
X-2644000Y+760000D03*
X-2898000Y+760000D03*
X-3152000Y+760000D03*
X-3406000Y+760000D03*
X-3660000Y+760000D03*
X-3914000Y+760000D03*
X-4168000Y+760000D03*
X-4422000Y+760000D03*
X-4422000Y-2000D03*
X-4168000Y-2000D03*
X-3914000Y-2000D03*
X-3660000Y-2000D03*
X-3406000Y-2000D03*
X-3152000Y-2000D03*
X-2898000Y-2000D03*
X-2644000Y-2000D03*
X-2390000Y-2000D03*
D13*
X-1990000Y-130000D03*
X-1990000Y+886000D03*
X-1740000Y-130000D03*
X-1740000Y+886000D03*
X-1500000Y-130000D03*
X-1500000Y+886000D03*
X-1320000Y-1540000D03*
X-2336000Y-1540000D03*
X-1320000Y-1240000D03*
X-2336000Y-1240000D03*
X-1330000Y-930000D03*
X-2346000Y-930000D03*
X-1330000Y-630000D03*
X-2346000Y-630000D03*
D14*
X-2890000Y-720000D03*
X-3398000Y-720000D03*
D13*
X-2880000Y-1840000D03*
X-2880000Y-1332000D03*
X-3400000Y-1850000D03*
X-3400000Y-1342000D03*
X-2300000Y+3089040D03*
X-2808000Y+3089040D03*
D15*
X-690000Y-1620000D03*
X-436000Y-1620000D03*
X-182000Y-1620000D03*
X+72000Y-1620000D03*
X+72000Y-858000D03*
X-182000Y-858000D03*
X-436000Y-858000D03*
X-690000Y-858000D03*
D16*
X-1040000Y+1520000D03*
X-786000Y+1520000D03*
X-230000Y+1520000D03*
X+24000Y+1520000D03*
X-1020000Y+720000D03*
X-766000Y+720000D03*
X-230000Y+720000D03*
X+24000Y+720000D03*
X-1008500Y+48500D03*
X-754500Y+48500D03*
X-230000Y+30000D03*
X+24000Y+30000D03*
D13*
X-1170000Y-470000D03*
X-154000Y-470000D03*
X-2420000Y+1710000D03*
X-1404000Y+1710000D03*
X-2420000Y+1400000D03*
X-1404000Y+1400000D03*
X-5310000Y-650000D03*
X-4294000Y-650000D03*
D16*
X-5300000Y+840000D03*
X-5300000Y+586000D03*
X-5300000Y+332000D03*
X-5300000Y+78000D03*
X-5300000Y-176000D03*
D17*
X-4990000Y+1750000D03*
X-4675040Y+1277560D03*
X-4372780Y+1750000D03*
D13*
X-4566000Y+2390000D03*
X-3550000Y+2390000D03*
D16*
X-4680000Y+2720000D03*
X-4680000Y+2974000D03*
D13*
X-4230000Y+2870000D03*
X-3214000Y+2870000D03*
D16*
X-2804000Y+2520000D03*
X-2550000Y+2520000D03*
X-2296000Y+2520000D03*
D13*
X-3810000Y+1810000D03*
X-3810000Y+1302000D03*
D14*
X-3230000Y+1810000D03*
X-3230000Y+1556000D03*
D13*
X-1800000Y+2000000D03*
X-1800000Y+2508000D03*
D18*
X-4770000Y-1280000D03*
X-4270000Y-1280000D03*
D19*
X-5800000Y-2160000D02*
X+390000Y-2160000D01*
X+390000Y+3300000D01*
X-5800000Y+3300000D01*
X-5800000Y-2160000D01*
M02*
