G04 PROTEUS RS274X GERBER FILE*
%FSLAX45Y45*%
%MOMM*%
G01*
%ADD19C,0.203200*%
%ADD70C,0.127000*%
%ADD28C,0.063500*%
D19*
X-2390000Y+823500D02*
X-2390000Y+696500D01*
X-2453500Y+760000D02*
X-2326500Y+760000D01*
X-2644000Y+823500D02*
X-2644000Y+696500D01*
X-2707500Y+760000D02*
X-2580500Y+760000D01*
X-2898000Y+823500D02*
X-2898000Y+696500D01*
X-2961500Y+760000D02*
X-2834500Y+760000D01*
X-3152000Y+823500D02*
X-3152000Y+696500D01*
X-3215500Y+760000D02*
X-3088500Y+760000D01*
X-3406000Y+823500D02*
X-3406000Y+696500D01*
X-3469500Y+760000D02*
X-3342500Y+760000D01*
X-3660000Y+823500D02*
X-3660000Y+696500D01*
X-3723500Y+760000D02*
X-3596500Y+760000D01*
X-3914000Y+823500D02*
X-3914000Y+696500D01*
X-3977500Y+760000D02*
X-3850500Y+760000D01*
X-4168000Y+823500D02*
X-4168000Y+696500D01*
X-4231500Y+760000D02*
X-4104500Y+760000D01*
X-4422000Y+823500D02*
X-4422000Y+696500D01*
X-4485500Y+760000D02*
X-4358500Y+760000D01*
X-4422000Y+61500D02*
X-4422000Y-65500D01*
X-4485500Y-2000D02*
X-4358500Y-2000D01*
X-4168000Y+61500D02*
X-4168000Y-65500D01*
X-4231500Y-2000D02*
X-4104500Y-2000D01*
X-3914000Y+61500D02*
X-3914000Y-65500D01*
X-3977500Y-2000D02*
X-3850500Y-2000D01*
X-3660000Y+61500D02*
X-3660000Y-65500D01*
X-3723500Y-2000D02*
X-3596500Y-2000D01*
X-3406000Y+61500D02*
X-3406000Y-65500D01*
X-3469500Y-2000D02*
X-3342500Y-2000D01*
X-3152000Y+61500D02*
X-3152000Y-65500D01*
X-3215500Y-2000D02*
X-3088500Y-2000D01*
X-2898000Y+61500D02*
X-2898000Y-65500D01*
X-2961500Y-2000D02*
X-2834500Y-2000D01*
X-2644000Y+61500D02*
X-2644000Y-65500D01*
X-2707500Y-2000D02*
X-2580500Y-2000D01*
X-2390000Y+61500D02*
X-2390000Y-65500D01*
X-2453500Y-2000D02*
X-2326500Y-2000D01*
X-1990000Y-66500D02*
X-1990000Y-193500D01*
X-2053500Y-130000D02*
X-1926500Y-130000D01*
X-1990000Y+949500D02*
X-1990000Y+822500D01*
X-2053500Y+886000D02*
X-1926500Y+886000D01*
X-1740000Y-66500D02*
X-1740000Y-193500D01*
X-1803500Y-130000D02*
X-1676500Y-130000D01*
X-1740000Y+949500D02*
X-1740000Y+822500D01*
X-1803500Y+886000D02*
X-1676500Y+886000D01*
X-1500000Y-66500D02*
X-1500000Y-193500D01*
X-1563500Y-130000D02*
X-1436500Y-130000D01*
X-1500000Y+949500D02*
X-1500000Y+822500D01*
X-1563500Y+886000D02*
X-1436500Y+886000D01*
X-1320000Y-1476500D02*
X-1320000Y-1603500D01*
X-1383500Y-1540000D02*
X-1256500Y-1540000D01*
X-2336000Y-1476500D02*
X-2336000Y-1603500D01*
X-2399500Y-1540000D02*
X-2272500Y-1540000D01*
X-1320000Y-1176500D02*
X-1320000Y-1303500D01*
X-1383500Y-1240000D02*
X-1256500Y-1240000D01*
X-2336000Y-1176500D02*
X-2336000Y-1303500D01*
X-2399500Y-1240000D02*
X-2272500Y-1240000D01*
X-1330000Y-866500D02*
X-1330000Y-993500D01*
X-1393500Y-930000D02*
X-1266500Y-930000D01*
X-2346000Y-866500D02*
X-2346000Y-993500D01*
X-2409500Y-930000D02*
X-2282500Y-930000D01*
X-1330000Y-566500D02*
X-1330000Y-693500D01*
X-1393500Y-630000D02*
X-1266500Y-630000D01*
X-2346000Y-566500D02*
X-2346000Y-693500D01*
X-2409500Y-630000D02*
X-2282500Y-630000D01*
X-2890000Y-656500D02*
X-2890000Y-783500D01*
X-2953500Y-720000D02*
X-2826500Y-720000D01*
X-3398000Y-656500D02*
X-3398000Y-783500D01*
X-3461500Y-720000D02*
X-3334500Y-720000D01*
X-2880000Y-1776500D02*
X-2880000Y-1903500D01*
X-2943500Y-1840000D02*
X-2816500Y-1840000D01*
X-2880000Y-1268500D02*
X-2880000Y-1395500D01*
X-2943500Y-1332000D02*
X-2816500Y-1332000D01*
X-3400000Y-1786500D02*
X-3400000Y-1913500D01*
X-3463500Y-1850000D02*
X-3336500Y-1850000D01*
X-3400000Y-1278500D02*
X-3400000Y-1405500D01*
X-3463500Y-1342000D02*
X-3336500Y-1342000D01*
X-2300000Y+3152540D02*
X-2300000Y+3025540D01*
X-2363500Y+3089040D02*
X-2236500Y+3089040D01*
X-2808000Y+3152540D02*
X-2808000Y+3025540D01*
X-2871500Y+3089040D02*
X-2744500Y+3089040D01*
X-690000Y-1556500D02*
X-690000Y-1683500D01*
X-753500Y-1620000D02*
X-626500Y-1620000D01*
X-436000Y-1556500D02*
X-436000Y-1683500D01*
X-499500Y-1620000D02*
X-372500Y-1620000D01*
X-182000Y-1556500D02*
X-182000Y-1683500D01*
X-245500Y-1620000D02*
X-118500Y-1620000D01*
X+72000Y-1556500D02*
X+72000Y-1683500D01*
X+8500Y-1620000D02*
X+135500Y-1620000D01*
X+72000Y-794500D02*
X+72000Y-921500D01*
X+8500Y-858000D02*
X+135500Y-858000D01*
X-182000Y-794500D02*
X-182000Y-921500D01*
X-245500Y-858000D02*
X-118500Y-858000D01*
X-436000Y-794500D02*
X-436000Y-921500D01*
X-499500Y-858000D02*
X-372500Y-858000D01*
X-690000Y-794500D02*
X-690000Y-921500D01*
X-753500Y-858000D02*
X-626500Y-858000D01*
X-1040000Y+1583500D02*
X-1040000Y+1456500D01*
X-1103500Y+1520000D02*
X-976500Y+1520000D01*
X-1084901Y+1564901D02*
X-995099Y+1475099D01*
X-1084901Y+1475099D02*
X-995099Y+1564901D01*
X-786000Y+1583500D02*
X-786000Y+1456500D01*
X-849500Y+1520000D02*
X-722500Y+1520000D01*
X-830901Y+1564901D02*
X-741099Y+1475099D01*
X-830901Y+1475099D02*
X-741099Y+1564901D01*
X-230000Y+1583500D02*
X-230000Y+1456500D01*
X-293500Y+1520000D02*
X-166500Y+1520000D01*
X-274901Y+1564901D02*
X-185099Y+1475099D01*
X-274901Y+1475099D02*
X-185099Y+1564901D01*
X+24000Y+1583500D02*
X+24000Y+1456500D01*
X-39500Y+1520000D02*
X+87500Y+1520000D01*
X-20901Y+1564901D02*
X+68901Y+1475099D01*
X-20901Y+1475099D02*
X+68901Y+1564901D01*
X-1020000Y+783500D02*
X-1020000Y+656500D01*
X-1083500Y+720000D02*
X-956500Y+720000D01*
X-1064901Y+764901D02*
X-975099Y+675099D01*
X-1064901Y+675099D02*
X-975099Y+764901D01*
X-766000Y+783500D02*
X-766000Y+656500D01*
X-829500Y+720000D02*
X-702500Y+720000D01*
X-810901Y+764901D02*
X-721099Y+675099D01*
X-810901Y+675099D02*
X-721099Y+764901D01*
X-230000Y+783500D02*
X-230000Y+656500D01*
X-293500Y+720000D02*
X-166500Y+720000D01*
X-274901Y+764901D02*
X-185099Y+675099D01*
X-274901Y+675099D02*
X-185099Y+764901D01*
X+24000Y+783500D02*
X+24000Y+656500D01*
X-39500Y+720000D02*
X+87500Y+720000D01*
X-20901Y+764901D02*
X+68901Y+675099D01*
X-20901Y+675099D02*
X+68901Y+764901D01*
X-1008500Y+112000D02*
X-1008500Y-15000D01*
X-1072000Y+48500D02*
X-945000Y+48500D01*
X-1053401Y+93401D02*
X-963599Y+3599D01*
X-1053401Y+3599D02*
X-963599Y+93401D01*
X-754500Y+112000D02*
X-754500Y-15000D01*
X-818000Y+48500D02*
X-691000Y+48500D01*
X-799401Y+93401D02*
X-709599Y+3599D01*
X-799401Y+3599D02*
X-709599Y+93401D01*
X-230000Y+93500D02*
X-230000Y-33500D01*
X-293500Y+30000D02*
X-166500Y+30000D01*
X-274901Y+74901D02*
X-185099Y-14901D01*
X-274901Y-14901D02*
X-185099Y+74901D01*
X+24000Y+93500D02*
X+24000Y-33500D01*
X-39500Y+30000D02*
X+87500Y+30000D01*
X-20901Y+74901D02*
X+68901Y-14901D01*
X-20901Y-14901D02*
X+68901Y+74901D01*
X-1170000Y-406500D02*
X-1170000Y-533500D01*
X-1233500Y-470000D02*
X-1106500Y-470000D01*
X-154000Y-406500D02*
X-154000Y-533500D01*
X-217500Y-470000D02*
X-90500Y-470000D01*
X-2420000Y+1773500D02*
X-2420000Y+1646500D01*
X-2483500Y+1710000D02*
X-2356500Y+1710000D01*
X-1404000Y+1773500D02*
X-1404000Y+1646500D01*
X-1467500Y+1710000D02*
X-1340500Y+1710000D01*
X-2420000Y+1463500D02*
X-2420000Y+1336500D01*
X-2483500Y+1400000D02*
X-2356500Y+1400000D01*
X-1404000Y+1463500D02*
X-1404000Y+1336500D01*
X-1467500Y+1400000D02*
X-1340500Y+1400000D01*
X-5310000Y-586500D02*
X-5310000Y-713500D01*
X-5373500Y-650000D02*
X-5246500Y-650000D01*
X-4294000Y-586500D02*
X-4294000Y-713500D01*
X-4357500Y-650000D02*
X-4230500Y-650000D01*
X-5300000Y+903500D02*
X-5300000Y+776500D01*
X-5363500Y+840000D02*
X-5236500Y+840000D01*
X-5344901Y+884901D02*
X-5255099Y+795099D01*
X-5344901Y+795099D02*
X-5255099Y+884901D01*
X-5300000Y+649500D02*
X-5300000Y+522500D01*
X-5363500Y+586000D02*
X-5236500Y+586000D01*
X-5344901Y+630901D02*
X-5255099Y+541099D01*
X-5344901Y+541099D02*
X-5255099Y+630901D01*
X-5300000Y+395500D02*
X-5300000Y+268500D01*
X-5363500Y+332000D02*
X-5236500Y+332000D01*
X-5344901Y+376901D02*
X-5255099Y+287099D01*
X-5344901Y+287099D02*
X-5255099Y+376901D01*
X-5300000Y+141500D02*
X-5300000Y+14500D01*
X-5363500Y+78000D02*
X-5236500Y+78000D01*
X-5344901Y+122901D02*
X-5255099Y+33099D01*
X-5344901Y+33099D02*
X-5255099Y+122901D01*
X-5300000Y-112500D02*
X-5300000Y-239500D01*
X-5363500Y-176000D02*
X-5236500Y-176000D01*
X-5344901Y-131099D02*
X-5255099Y-220901D01*
X-5344901Y-220901D02*
X-5255099Y-131099D01*
X-4926500Y+1750000D02*
X-4926717Y+1755247D01*
X-4928482Y+1765742D01*
X-4932174Y+1776237D01*
X-4938202Y+1786732D01*
X-4947424Y+1797112D01*
X-4957919Y+1804800D01*
X-4968414Y+1809718D01*
X-4978909Y+1812524D01*
X-4989404Y+1813497D01*
X-4990000Y+1813500D01*
X-5053500Y+1750000D02*
X-5053283Y+1755247D01*
X-5051518Y+1765742D01*
X-5047826Y+1776237D01*
X-5041798Y+1786732D01*
X-5032576Y+1797112D01*
X-5022081Y+1804800D01*
X-5011586Y+1809718D01*
X-5001091Y+1812524D01*
X-4990596Y+1813497D01*
X-4990000Y+1813500D01*
X-5053500Y+1750000D02*
X-5053283Y+1744753D01*
X-5051518Y+1734258D01*
X-5047826Y+1723763D01*
X-5041798Y+1713268D01*
X-5032576Y+1702888D01*
X-5022081Y+1695200D01*
X-5011586Y+1690282D01*
X-5001091Y+1687476D01*
X-4990596Y+1686503D01*
X-4990000Y+1686500D01*
X-4926500Y+1750000D02*
X-4926717Y+1744753D01*
X-4928482Y+1734258D01*
X-4932174Y+1723763D01*
X-4938202Y+1713268D01*
X-4947424Y+1702888D01*
X-4957919Y+1695200D01*
X-4968414Y+1690282D01*
X-4978909Y+1687476D01*
X-4989404Y+1686503D01*
X-4990000Y+1686500D01*
X-4990000Y+1813500D02*
X-4990000Y+1686500D01*
X-5053500Y+1750000D02*
X-4926500Y+1750000D01*
X-4611540Y+1277560D02*
X-4611757Y+1282807D01*
X-4613522Y+1293302D01*
X-4617214Y+1303797D01*
X-4623242Y+1314292D01*
X-4632464Y+1324672D01*
X-4642959Y+1332360D01*
X-4653454Y+1337278D01*
X-4663949Y+1340084D01*
X-4674444Y+1341057D01*
X-4675040Y+1341060D01*
X-4738540Y+1277560D02*
X-4738323Y+1282807D01*
X-4736558Y+1293302D01*
X-4732866Y+1303797D01*
X-4726838Y+1314292D01*
X-4717616Y+1324672D01*
X-4707121Y+1332360D01*
X-4696626Y+1337278D01*
X-4686131Y+1340084D01*
X-4675636Y+1341057D01*
X-4675040Y+1341060D01*
X-4738540Y+1277560D02*
X-4738323Y+1272313D01*
X-4736558Y+1261818D01*
X-4732866Y+1251323D01*
X-4726838Y+1240828D01*
X-4717616Y+1230448D01*
X-4707121Y+1222760D01*
X-4696626Y+1217842D01*
X-4686131Y+1215036D01*
X-4675636Y+1214063D01*
X-4675040Y+1214060D01*
X-4611540Y+1277560D02*
X-4611757Y+1272313D01*
X-4613522Y+1261818D01*
X-4617214Y+1251323D01*
X-4623242Y+1240828D01*
X-4632464Y+1230448D01*
X-4642959Y+1222760D01*
X-4653454Y+1217842D01*
X-4663949Y+1215036D01*
X-4674444Y+1214063D01*
X-4675040Y+1214060D01*
X-4675040Y+1341060D02*
X-4675040Y+1214060D01*
X-4738540Y+1277560D02*
X-4611540Y+1277560D01*
X-4309280Y+1750000D02*
X-4309497Y+1755247D01*
X-4311262Y+1765742D01*
X-4314954Y+1776237D01*
X-4320982Y+1786732D01*
X-4330204Y+1797112D01*
X-4340699Y+1804800D01*
X-4351194Y+1809718D01*
X-4361689Y+1812524D01*
X-4372184Y+1813497D01*
X-4372780Y+1813500D01*
X-4436280Y+1750000D02*
X-4436063Y+1755247D01*
X-4434298Y+1765742D01*
X-4430606Y+1776237D01*
X-4424578Y+1786732D01*
X-4415356Y+1797112D01*
X-4404861Y+1804800D01*
X-4394366Y+1809718D01*
X-4383871Y+1812524D01*
X-4373376Y+1813497D01*
X-4372780Y+1813500D01*
X-4436280Y+1750000D02*
X-4436063Y+1744753D01*
X-4434298Y+1734258D01*
X-4430606Y+1723763D01*
X-4424578Y+1713268D01*
X-4415356Y+1702888D01*
X-4404861Y+1695200D01*
X-4394366Y+1690282D01*
X-4383871Y+1687476D01*
X-4373376Y+1686503D01*
X-4372780Y+1686500D01*
X-4309280Y+1750000D02*
X-4309497Y+1744753D01*
X-4311262Y+1734258D01*
X-4314954Y+1723763D01*
X-4320982Y+1713268D01*
X-4330204Y+1702888D01*
X-4340699Y+1695200D01*
X-4351194Y+1690282D01*
X-4361689Y+1687476D01*
X-4372184Y+1686503D01*
X-4372780Y+1686500D01*
X-4372780Y+1813500D02*
X-4372780Y+1686500D01*
X-4436280Y+1750000D02*
X-4309280Y+1750000D01*
X-4566000Y+2453500D02*
X-4566000Y+2326500D01*
X-4629500Y+2390000D02*
X-4502500Y+2390000D01*
X-3550000Y+2453500D02*
X-3550000Y+2326500D01*
X-3613500Y+2390000D02*
X-3486500Y+2390000D01*
X-4680000Y+2783500D02*
X-4680000Y+2656500D01*
X-4743500Y+2720000D02*
X-4616500Y+2720000D01*
X-4724901Y+2764901D02*
X-4635099Y+2675099D01*
X-4724901Y+2675099D02*
X-4635099Y+2764901D01*
X-4680000Y+3037500D02*
X-4680000Y+2910500D01*
X-4743500Y+2974000D02*
X-4616500Y+2974000D01*
X-4724901Y+3018901D02*
X-4635099Y+2929099D01*
X-4724901Y+2929099D02*
X-4635099Y+3018901D01*
X-4230000Y+2933500D02*
X-4230000Y+2806500D01*
X-4293500Y+2870000D02*
X-4166500Y+2870000D01*
X-3214000Y+2933500D02*
X-3214000Y+2806500D01*
X-3277500Y+2870000D02*
X-3150500Y+2870000D01*
X-2804000Y+2583500D02*
X-2804000Y+2456500D01*
X-2867500Y+2520000D02*
X-2740500Y+2520000D01*
X-2848901Y+2564901D02*
X-2759099Y+2475099D01*
X-2848901Y+2475099D02*
X-2759099Y+2564901D01*
X-2550000Y+2583500D02*
X-2550000Y+2456500D01*
X-2613500Y+2520000D02*
X-2486500Y+2520000D01*
X-2594901Y+2564901D02*
X-2505099Y+2475099D01*
X-2594901Y+2475099D02*
X-2505099Y+2564901D01*
X-2296000Y+2583500D02*
X-2296000Y+2456500D01*
X-2359500Y+2520000D02*
X-2232500Y+2520000D01*
X-2340901Y+2564901D02*
X-2251099Y+2475099D01*
X-2340901Y+2475099D02*
X-2251099Y+2564901D01*
X-3810000Y+1873500D02*
X-3810000Y+1746500D01*
X-3873500Y+1810000D02*
X-3746500Y+1810000D01*
X-3810000Y+1365500D02*
X-3810000Y+1238500D01*
X-3873500Y+1302000D02*
X-3746500Y+1302000D01*
X-3230000Y+1873500D02*
X-3230000Y+1746500D01*
X-3293500Y+1810000D02*
X-3166500Y+1810000D01*
X-3230000Y+1619500D02*
X-3230000Y+1492500D01*
X-3293500Y+1556000D02*
X-3166500Y+1556000D01*
X-1800000Y+2063500D02*
X-1800000Y+1936500D01*
X-1863500Y+2000000D02*
X-1736500Y+2000000D01*
X-1800000Y+2571500D02*
X-1800000Y+2444500D01*
X-1863500Y+2508000D02*
X-1736500Y+2508000D01*
X-4814901Y-1235099D02*
X-4725099Y-1324901D01*
X-4814901Y-1324901D02*
X-4725099Y-1235099D01*
X-4314901Y-1235099D02*
X-4225099Y-1324901D01*
X-4314901Y-1324901D02*
X-4225099Y-1235099D01*
X-5800000Y-2160000D02*
X+390000Y-2160000D01*
X+390000Y+3300000D01*
X-5800000Y+3300000D01*
X-5800000Y-2160000D01*
D70*
X-5812700Y-3671300D02*
X-3066960Y-3671300D01*
X-3066960Y-2426700D01*
X-5812700Y-2426700D01*
X-5812700Y-3671300D01*
D28*
X-5345338Y-2426700D02*
X-5345338Y-3671300D01*
X-4430938Y-2426700D02*
X-4430938Y-3671300D01*
X-3597818Y-2426700D02*
X-3597818Y-3671300D01*
X-5812700Y-2699750D02*
X-3066960Y-2699750D01*
X-5812700Y-2941050D02*
X-3066960Y-2941050D01*
X-5812700Y-3182350D02*
X-3066960Y-3182350D01*
X-5812700Y-3423650D02*
X-3066960Y-3423650D01*
D70*
X-5755550Y-2590530D02*
X-5740310Y-2605770D01*
X-5679350Y-2605770D01*
X-5664110Y-2590530D01*
X-5664110Y-2575290D01*
X-5679350Y-2560050D01*
X-5740310Y-2560050D01*
X-5755550Y-2544810D01*
X-5755550Y-2529570D01*
X-5740310Y-2514330D01*
X-5679350Y-2514330D01*
X-5664110Y-2529570D01*
X-5542190Y-2514330D02*
X-5633630Y-2605770D01*
X-5633630Y-2514330D02*
X-5587910Y-2560050D01*
X-5511710Y-2605770D02*
X-5511710Y-2514330D01*
X-5465990Y-2560050D01*
X-5420270Y-2514330D01*
X-5420270Y-2605770D01*
X-5288190Y-2590530D02*
X-5272950Y-2605770D01*
X-5211990Y-2605770D01*
X-5196750Y-2590530D01*
X-5196750Y-2575290D01*
X-5211990Y-2560050D01*
X-5272950Y-2560050D01*
X-5288190Y-2544810D01*
X-5288190Y-2529570D01*
X-5272950Y-2514330D01*
X-5211990Y-2514330D01*
X-5196750Y-2529570D01*
X-5151030Y-2514330D02*
X-5090070Y-2514330D01*
X-5120550Y-2514330D02*
X-5120550Y-2605770D01*
X-5151030Y-2605770D02*
X-5090070Y-2605770D01*
X-5044350Y-2514330D02*
X-4952910Y-2514330D01*
X-5044350Y-2605770D01*
X-4952910Y-2605770D01*
X-4830990Y-2605770D02*
X-4922430Y-2605770D01*
X-4922430Y-2514330D01*
X-4830990Y-2514330D01*
X-4922430Y-2560050D02*
X-4861470Y-2560050D01*
X-4373790Y-2605770D02*
X-4373790Y-2514330D01*
X-4297590Y-2514330D01*
X-4282350Y-2529570D01*
X-4282350Y-2544810D01*
X-4297590Y-2560050D01*
X-4373790Y-2560050D01*
X-4251870Y-2514330D02*
X-4251870Y-2605770D01*
X-4160430Y-2605770D01*
X-4129950Y-2605770D02*
X-4129950Y-2544810D01*
X-4099470Y-2514330D01*
X-4068990Y-2514330D01*
X-4038510Y-2544810D01*
X-4038510Y-2605770D01*
X-4129950Y-2575290D02*
X-4038510Y-2575290D01*
X-4008030Y-2514330D02*
X-3916590Y-2514330D01*
X-3962310Y-2514330D02*
X-3962310Y-2605770D01*
X-3794670Y-2605770D02*
X-3886110Y-2605770D01*
X-3886110Y-2514330D01*
X-3794670Y-2514330D01*
X-3886110Y-2560050D02*
X-3825150Y-2560050D01*
X-3764190Y-2605770D02*
X-3764190Y-2514330D01*
X-3703230Y-2514330D01*
X-3672750Y-2544810D01*
X-3672750Y-2575290D01*
X-3703230Y-2605770D01*
X-3764190Y-2605770D01*
X-3540670Y-2544810D02*
X-3510190Y-2514330D01*
X-3479710Y-2514330D01*
X-3449230Y-2544810D01*
X-3449230Y-2575290D01*
X-3479710Y-2605770D01*
X-3510190Y-2605770D01*
X-3540670Y-2575290D01*
X-3540670Y-2544810D01*
X-3479710Y-2575290D02*
X-3449230Y-2605770D01*
X-3418750Y-2514330D02*
X-3327310Y-2514330D01*
X-3373030Y-2514330D02*
X-3373030Y-2605770D01*
X-3205390Y-2514330D02*
X-3296830Y-2605770D01*
X-3296830Y-2514330D02*
X-3251110Y-2560050D01*
D19*
X-5566320Y-2750550D02*
X-5566320Y-2877550D01*
X-5629820Y-2814050D02*
X-5502820Y-2814050D01*
D70*
X-5269140Y-2839450D02*
X-5269140Y-2788650D01*
X-5256440Y-2775950D01*
X-5205640Y-2775950D01*
X-5192940Y-2788650D01*
X-5192940Y-2839450D01*
X-5205640Y-2852150D01*
X-5256440Y-2852150D01*
X-5269140Y-2839450D01*
X-5269140Y-2852150D02*
X-5192940Y-2775950D01*
X-5129440Y-2839450D02*
X-5116740Y-2839450D01*
X-5116740Y-2852150D01*
X-5129440Y-2852150D01*
X-5129440Y-2839450D01*
X-5053240Y-2775950D02*
X-4989740Y-2775950D01*
X-4989740Y-2788650D01*
X-5053240Y-2852150D01*
X-4888140Y-2788650D02*
X-4900840Y-2775950D01*
X-4938940Y-2775950D01*
X-4951640Y-2788650D01*
X-4951640Y-2839450D01*
X-4938940Y-2852150D01*
X-4900840Y-2852150D01*
X-4888140Y-2839450D01*
X-4888140Y-2826750D01*
X-4900840Y-2814050D01*
X-4951640Y-2814050D01*
X-4850040Y-2788650D02*
X-4837340Y-2775950D01*
X-4799240Y-2775950D01*
X-4786540Y-2788650D01*
X-4786540Y-2801350D01*
X-4799240Y-2814050D01*
X-4837340Y-2814050D01*
X-4850040Y-2826750D01*
X-4850040Y-2852150D01*
X-4786540Y-2852150D01*
X-4761140Y-2852150D02*
X-4761140Y-2801350D01*
X-4761140Y-2814050D02*
X-4748440Y-2801350D01*
X-4723040Y-2826750D01*
X-4697640Y-2801350D01*
X-4684940Y-2814050D01*
X-4684940Y-2852150D01*
X-4659540Y-2852150D02*
X-4659540Y-2801350D01*
X-4659540Y-2814050D02*
X-4646840Y-2801350D01*
X-4621440Y-2826750D01*
X-4596040Y-2801350D01*
X-4583340Y-2814050D01*
X-4583340Y-2852150D01*
X-4265840Y-2775950D02*
X-4342040Y-2852150D01*
X-4342040Y-2775950D02*
X-4303940Y-2814050D01*
X-4164240Y-2852150D02*
X-4240440Y-2852150D01*
X-4240440Y-2775950D01*
X-4164240Y-2775950D01*
X-4240440Y-2814050D02*
X-4189640Y-2814050D01*
X-4138840Y-2839450D02*
X-4126140Y-2852150D01*
X-4075340Y-2852150D01*
X-4062640Y-2839450D01*
X-4062640Y-2826750D01*
X-4075340Y-2814050D01*
X-4126140Y-2814050D01*
X-4138840Y-2801350D01*
X-4138840Y-2788650D01*
X-4126140Y-2775950D01*
X-4075340Y-2775950D01*
X-4062640Y-2788650D01*
X-3420020Y-2788650D02*
X-3432720Y-2775950D01*
X-3470820Y-2775950D01*
X-3483520Y-2788650D01*
X-3483520Y-2839450D01*
X-3470820Y-2852150D01*
X-3432720Y-2852150D01*
X-3420020Y-2839450D01*
X-3420020Y-2826750D01*
X-3432720Y-2814050D01*
X-3483520Y-2814050D01*
X-3318420Y-2788650D02*
X-3331120Y-2775950D01*
X-3369220Y-2775950D01*
X-3381920Y-2788650D01*
X-3381920Y-2839450D01*
X-3369220Y-2852150D01*
X-3331120Y-2852150D01*
X-3318420Y-2839450D01*
X-3318420Y-2826750D01*
X-3331120Y-2814050D01*
X-3381920Y-2814050D01*
D19*
X-5611221Y-3010449D02*
X-5521419Y-3100251D01*
X-5611221Y-3100251D02*
X-5521419Y-3010449D01*
D70*
X-5269140Y-3080750D02*
X-5269140Y-3029950D01*
X-5256440Y-3017250D01*
X-5205640Y-3017250D01*
X-5192940Y-3029950D01*
X-5192940Y-3080750D01*
X-5205640Y-3093450D01*
X-5256440Y-3093450D01*
X-5269140Y-3080750D01*
X-5269140Y-3093450D02*
X-5192940Y-3017250D01*
X-5129440Y-3080750D02*
X-5116740Y-3080750D01*
X-5116740Y-3093450D01*
X-5129440Y-3093450D01*
X-5129440Y-3080750D01*
X-4989740Y-3042650D02*
X-5002440Y-3055350D01*
X-5040540Y-3055350D01*
X-5053240Y-3042650D01*
X-5053240Y-3029950D01*
X-5040540Y-3017250D01*
X-5002440Y-3017250D01*
X-4989740Y-3029950D01*
X-4989740Y-3080750D01*
X-5002440Y-3093450D01*
X-5040540Y-3093450D01*
X-4888140Y-3042650D02*
X-4900840Y-3055350D01*
X-4938940Y-3055350D01*
X-4951640Y-3042650D01*
X-4951640Y-3029950D01*
X-4938940Y-3017250D01*
X-4900840Y-3017250D01*
X-4888140Y-3029950D01*
X-4888140Y-3080750D01*
X-4900840Y-3093450D01*
X-4938940Y-3093450D01*
X-4862740Y-3080750D02*
X-4862740Y-3029950D01*
X-4850040Y-3017250D01*
X-4799240Y-3017250D01*
X-4786540Y-3029950D01*
X-4786540Y-3080750D01*
X-4799240Y-3093450D01*
X-4850040Y-3093450D01*
X-4862740Y-3080750D01*
X-4862740Y-3093450D02*
X-4786540Y-3017250D01*
X-4684940Y-3029950D02*
X-4697640Y-3017250D01*
X-4735740Y-3017250D01*
X-4748440Y-3029950D01*
X-4748440Y-3080750D01*
X-4735740Y-3093450D01*
X-4697640Y-3093450D01*
X-4684940Y-3080750D01*
X-4684940Y-3068050D01*
X-4697640Y-3055350D01*
X-4748440Y-3055350D01*
X-4659540Y-3093450D02*
X-4659540Y-3042650D01*
X-4659540Y-3055350D02*
X-4646840Y-3042650D01*
X-4621440Y-3068050D01*
X-4596040Y-3042650D01*
X-4583340Y-3055350D01*
X-4583340Y-3093450D01*
X-4557940Y-3093450D02*
X-4557940Y-3042650D01*
X-4557940Y-3055350D02*
X-4545240Y-3042650D01*
X-4519840Y-3068050D01*
X-4494440Y-3042650D01*
X-4481740Y-3055350D01*
X-4481740Y-3093450D01*
X-4265840Y-3017250D02*
X-4342040Y-3093450D01*
X-4342040Y-3017250D02*
X-4303940Y-3055350D01*
X-4164240Y-3093450D02*
X-4240440Y-3093450D01*
X-4240440Y-3017250D01*
X-4164240Y-3017250D01*
X-4240440Y-3055350D02*
X-4189640Y-3055350D01*
X-4138840Y-3080750D02*
X-4126140Y-3093450D01*
X-4075340Y-3093450D01*
X-4062640Y-3080750D01*
X-4062640Y-3068050D01*
X-4075340Y-3055350D01*
X-4126140Y-3055350D01*
X-4138840Y-3042650D01*
X-4138840Y-3029950D01*
X-4126140Y-3017250D01*
X-4075340Y-3017250D01*
X-4062640Y-3029950D01*
X-3483520Y-3029950D02*
X-3470820Y-3017250D01*
X-3432720Y-3017250D01*
X-3420020Y-3029950D01*
X-3420020Y-3042650D01*
X-3432720Y-3055350D01*
X-3470820Y-3055350D01*
X-3483520Y-3068050D01*
X-3483520Y-3093450D01*
X-3420020Y-3093450D01*
D19*
X-5566320Y-3233150D02*
X-5566320Y-3360150D01*
X-5629820Y-3296650D02*
X-5502820Y-3296650D01*
X-5611221Y-3251749D02*
X-5521419Y-3341551D01*
X-5611221Y-3341551D02*
X-5521419Y-3251749D01*
D70*
X-5243740Y-3283950D02*
X-5218340Y-3258550D01*
X-5218340Y-3334750D01*
X-5129440Y-3322050D02*
X-5116740Y-3322050D01*
X-5116740Y-3334750D01*
X-5129440Y-3334750D01*
X-5129440Y-3322050D01*
X-5065940Y-3322050D02*
X-5065940Y-3271250D01*
X-5053240Y-3258550D01*
X-5002440Y-3258550D01*
X-4989740Y-3271250D01*
X-4989740Y-3322050D01*
X-5002440Y-3334750D01*
X-5053240Y-3334750D01*
X-5065940Y-3322050D01*
X-5065940Y-3334750D02*
X-4989740Y-3258550D01*
X-4938940Y-3283950D02*
X-4913540Y-3258550D01*
X-4913540Y-3334750D01*
X-4786540Y-3271250D02*
X-4799240Y-3258550D01*
X-4837340Y-3258550D01*
X-4850040Y-3271250D01*
X-4850040Y-3322050D01*
X-4837340Y-3334750D01*
X-4799240Y-3334750D01*
X-4786540Y-3322050D01*
X-4786540Y-3309350D01*
X-4799240Y-3296650D01*
X-4850040Y-3296650D01*
X-4761140Y-3334750D02*
X-4761140Y-3283950D01*
X-4761140Y-3296650D02*
X-4748440Y-3283950D01*
X-4723040Y-3309350D01*
X-4697640Y-3283950D01*
X-4684940Y-3296650D01*
X-4684940Y-3334750D01*
X-4659540Y-3334750D02*
X-4659540Y-3283950D01*
X-4659540Y-3296650D02*
X-4646840Y-3283950D01*
X-4621440Y-3309350D01*
X-4596040Y-3283950D01*
X-4583340Y-3296650D01*
X-4583340Y-3334750D01*
X-4265840Y-3258550D02*
X-4342040Y-3334750D01*
X-4342040Y-3258550D02*
X-4303940Y-3296650D01*
X-4164240Y-3334750D02*
X-4240440Y-3334750D01*
X-4240440Y-3258550D01*
X-4164240Y-3258550D01*
X-4240440Y-3296650D02*
X-4189640Y-3296650D01*
X-4138840Y-3322050D02*
X-4126140Y-3334750D01*
X-4075340Y-3334750D01*
X-4062640Y-3322050D01*
X-4062640Y-3309350D01*
X-4075340Y-3296650D01*
X-4126140Y-3296650D01*
X-4138840Y-3283950D01*
X-4138840Y-3271250D01*
X-4126140Y-3258550D01*
X-4075340Y-3258550D01*
X-4062640Y-3271250D01*
X-3483520Y-3271250D02*
X-3470820Y-3258550D01*
X-3432720Y-3258550D01*
X-3420020Y-3271250D01*
X-3420020Y-3283950D01*
X-3432720Y-3296650D01*
X-3470820Y-3296650D01*
X-3483520Y-3309350D01*
X-3483520Y-3334750D01*
X-3420020Y-3334750D01*
X-3381920Y-3271250D02*
X-3369220Y-3258550D01*
X-3331120Y-3258550D01*
X-3318420Y-3271250D01*
X-3318420Y-3283950D01*
X-3331120Y-3296650D01*
X-3369220Y-3296650D01*
X-3381920Y-3309350D01*
X-3381920Y-3334750D01*
X-3318420Y-3334750D01*
D19*
X-5502820Y-3537950D02*
X-5503037Y-3532703D01*
X-5504802Y-3522208D01*
X-5508494Y-3511713D01*
X-5514522Y-3501218D01*
X-5523744Y-3490838D01*
X-5534239Y-3483150D01*
X-5544734Y-3478232D01*
X-5555229Y-3475426D01*
X-5565724Y-3474453D01*
X-5566320Y-3474450D01*
X-5629820Y-3537950D02*
X-5629603Y-3532703D01*
X-5627838Y-3522208D01*
X-5624146Y-3511713D01*
X-5618118Y-3501218D01*
X-5608896Y-3490838D01*
X-5598401Y-3483150D01*
X-5587906Y-3478232D01*
X-5577411Y-3475426D01*
X-5566916Y-3474453D01*
X-5566320Y-3474450D01*
X-5629820Y-3537950D02*
X-5629603Y-3543197D01*
X-5627838Y-3553692D01*
X-5624146Y-3564187D01*
X-5618118Y-3574682D01*
X-5608896Y-3585062D01*
X-5598401Y-3592750D01*
X-5587906Y-3597668D01*
X-5577411Y-3600474D01*
X-5566916Y-3601447D01*
X-5566320Y-3601450D01*
X-5502820Y-3537950D02*
X-5503037Y-3543197D01*
X-5504802Y-3553692D01*
X-5508494Y-3564187D01*
X-5514522Y-3574682D01*
X-5523744Y-3585062D01*
X-5534239Y-3592750D01*
X-5544734Y-3597668D01*
X-5555229Y-3600474D01*
X-5565724Y-3601447D01*
X-5566320Y-3601450D01*
X-5566320Y-3474450D02*
X-5566320Y-3601450D01*
X-5629820Y-3537950D02*
X-5502820Y-3537950D01*
D70*
X-5256440Y-3512550D02*
X-5243740Y-3499850D01*
X-5205640Y-3499850D01*
X-5192940Y-3512550D01*
X-5192940Y-3525250D01*
X-5205640Y-3537950D01*
X-5192940Y-3550650D01*
X-5192940Y-3563350D01*
X-5205640Y-3576050D01*
X-5243740Y-3576050D01*
X-5256440Y-3563350D01*
X-5231040Y-3537950D02*
X-5205640Y-3537950D01*
X-5129440Y-3563350D02*
X-5116740Y-3563350D01*
X-5116740Y-3576050D01*
X-5129440Y-3576050D01*
X-5129440Y-3563350D01*
X-5065940Y-3563350D02*
X-5065940Y-3512550D01*
X-5053240Y-3499850D01*
X-5002440Y-3499850D01*
X-4989740Y-3512550D01*
X-4989740Y-3563350D01*
X-5002440Y-3576050D01*
X-5053240Y-3576050D01*
X-5065940Y-3563350D01*
X-5065940Y-3576050D02*
X-4989740Y-3499850D01*
X-4888140Y-3550650D02*
X-4964340Y-3550650D01*
X-4913540Y-3499850D01*
X-4913540Y-3576050D01*
X-4837340Y-3537950D02*
X-4850040Y-3525250D01*
X-4850040Y-3512550D01*
X-4837340Y-3499850D01*
X-4799240Y-3499850D01*
X-4786540Y-3512550D01*
X-4786540Y-3525250D01*
X-4799240Y-3537950D01*
X-4837340Y-3537950D01*
X-4850040Y-3550650D01*
X-4850040Y-3563350D01*
X-4837340Y-3576050D01*
X-4799240Y-3576050D01*
X-4786540Y-3563350D01*
X-4786540Y-3550650D01*
X-4799240Y-3537950D01*
X-4761140Y-3576050D02*
X-4761140Y-3525250D01*
X-4761140Y-3537950D02*
X-4748440Y-3525250D01*
X-4723040Y-3550650D01*
X-4697640Y-3525250D01*
X-4684940Y-3537950D01*
X-4684940Y-3576050D01*
X-4659540Y-3576050D02*
X-4659540Y-3525250D01*
X-4659540Y-3537950D02*
X-4646840Y-3525250D01*
X-4621440Y-3550650D01*
X-4596040Y-3525250D01*
X-4583340Y-3537950D01*
X-4583340Y-3576050D01*
X-4265840Y-3499850D02*
X-4342040Y-3576050D01*
X-4342040Y-3499850D02*
X-4303940Y-3537950D01*
X-4164240Y-3576050D02*
X-4240440Y-3576050D01*
X-4240440Y-3499850D01*
X-4164240Y-3499850D01*
X-4240440Y-3537950D02*
X-4189640Y-3537950D01*
X-4138840Y-3563350D02*
X-4126140Y-3576050D01*
X-4075340Y-3576050D01*
X-4062640Y-3563350D01*
X-4062640Y-3550650D01*
X-4075340Y-3537950D01*
X-4126140Y-3537950D01*
X-4138840Y-3525250D01*
X-4138840Y-3512550D01*
X-4126140Y-3499850D01*
X-4075340Y-3499850D01*
X-4062640Y-3512550D01*
X-3483520Y-3512550D02*
X-3470820Y-3499850D01*
X-3432720Y-3499850D01*
X-3420020Y-3512550D01*
X-3420020Y-3525250D01*
X-3432720Y-3537950D01*
X-3420020Y-3550650D01*
X-3420020Y-3563350D01*
X-3432720Y-3576050D01*
X-3470820Y-3576050D01*
X-3483520Y-3563350D01*
X-3458120Y-3537950D02*
X-3432720Y-3537950D01*
M02*
